<?xml version="1.0" encoding="UTF-8" standalone="no"?>
<svg
   viewBox="0 0 8 8"
   shape-rendering="geometricPrecision"
   version="1.1"
   id="svg19"
   sodipodi:docname="blue.svg"
   inkscape:version="1.1.1 (3bf5ae0d25, 2021-09-20)"
   xmlns:inkscape="http://www.inkscape.org/namespaces/inkscape"
   xmlns:sodipodi="http://sodipodi.sourceforge.net/DTD/sodipodi-0.dtd"
   xmlns:xlink="http://www.w3.org/1999/xlink"
   xmlns="http://www.w3.org/2000/svg"
   xmlns:svg="http://www.w3.org/2000/svg">
  <defs
     id="defs23" />
  <sodipodi:namedview
     id="namedview21"
     pagecolor="#ffffff"
     bordercolor="#666666"
     borderopacity="1.0"
     inkscape:pageshadow="2"
     inkscape:pageopacity="0.0"
     inkscape:pagecheckerboard="0"
     showgrid="false"
     inkscape:zoom="128"
     inkscape:cx="2.8320312"
     inkscape:cy="4.2148437"
     inkscape:window-width="2560"
     inkscape:window-height="1361"
     inkscape:window-x="-9"
     inkscape:window-y="-9"
     inkscape:window-maximized="1"
     inkscape:current-layer="svg19" />
  <rect
     width="8"
     height="8"
     fill="#b58863"
     id="rect2" />
  <g
     id="a">
    <g
       id="b">
      <g
         id="c">
        <g
           id="d">
          <rect
             width="1"
             height="1"
             fill="#f0d9b5"
             id="e" />
          <use
             x="2"
             href="#e"
             xlink:href="#e"
             id="use5" />
        </g>
        <use
           x="4"
           href="#d"
           xlink:href="#d"
           id="use8" />
      </g>
      <use
         x="1"
         y="1"
         href="#c"
         xlink:href="#c"
         id="use11" />
    </g>
    <use
       y="2"
       href="#b"
       xlink:href="#b"
       id="use14" />
  </g>
  <use
     y="4"
     href="#a"
     xlink:href="#a"
     id="use17" />
  <path
     style="fill:#e1e6fc;stroke:none;stroke-width:0.00552427;fill-opacity:1"
     d="M 0.00276214,0.49994659 V 0 H 0.49994659 0.99713105 V 0.49994659 0.99989318 H 0.49994659 0.00276214 Z"
     id="path62" />
  <path
     style="fill:#e1e6fc;stroke-width:0.0078125;fill-opacity:1"
     d="M 1.0039062,1.5 V 1 H 1.5 1.9960937 V 1.5 2 H 1.5 1.0039062 Z"
     id="path175" />
  <path
     style="fill:#e1e6fc;stroke-width:0.0078125;fill-opacity:1"
     d="M 2.0039062,0.5 V 0 H 2.5 2.9960937 V 0.5 1 H 2.5 2.0039062 Z"
     id="path214" />
  <path
     style="fill:#e1e6fc;stroke-width:0.0078125;fill-opacity:1"
     d="M 0.00390625,2.5 V 2 H 0.5 0.99609375 V 2.5 3 H 0.5 0.00390625 Z"
     id="path253" />
  <path
     style="fill:#e1e6fc;stroke-width:0.0078125;fill-opacity:1"
     d="M 2.0039062,2.5 V 2 H 2.5 2.9960937 V 2.5 3 H 2.5 2.0039062 Z"
     id="path292" />
  <path
     style="fill:#e1e6fc;stroke-width:0.0078125;fill-opacity:1"
     d="M 1.0039062,3.5 V 3 H 1.5 1.9960937 V 3.5 4 H 1.5 1.0039062 Z"
     id="path331" />
  <path
     style="fill:#e1e6fc;stroke-width:0.0078125;fill-opacity:1"
     d="M 3.0039062,1.5 V 1 H 3.5 3.9960937 V 1.5 2 H 3.5 3.0039062 Z"
     id="path370" />
  <path
     style="fill:#e1e6fc;stroke-width:0.0078125;fill-opacity:1"
     d="M 4.0039062,0.5 V 0 H 4.5 4.9960937 V 0.5 1 H 4.5 4.0039062 Z"
     id="path409" />
  <path
     style="fill:#e1e6fc;stroke-width:0.0078125;fill-opacity:1"
     d="M 6.0039062,0.5 V 0 H 6.5 6.9960937 V 0.5 1 H 6.5 6.0039062 Z"
     id="path448" />
  <path
     style="fill:#e1e6fc;stroke-width:0.0078125;fill-opacity:1"
     d="M 5.0039062,1.5 V 1 H 5.5 5.9960937 V 1.5 2 H 5.5 5.0039062 Z"
     id="path487" />
  <path
     style="fill:#e1e6fc;stroke-width:0.0078125;fill-opacity:1"
     d="M 7.0039062,1.5 V 1 H 7.5 7.9960937 V 1.5 2 H 7.5 7.0039062 Z"
     id="path526" />
  <path
     style="fill:#e1e6fc;stroke-width:0.0078125;fill-opacity:1"
     d="M 6.0039062,2.5 V 2 H 6.5 6.9960937 V 2.5 3 H 6.5 6.0039062 Z"
     id="path565" />
  <path
     style="fill:#e1e6fc;stroke-width:0.0078125;fill-opacity:1"
     d="M 4.0039062,2.5 V 2 H 4.5 4.9960937 V 2.5 3 H 4.5 4.0039062 Z"
     id="path604" />
  <path
     style="fill:#e1e6fc;stroke-width:0.0078125;fill-opacity:1"
     d="M 3.0039062,3.5 V 3 H 3.5 3.9960937 V 3.5 4 H 3.5 3.0039062 Z"
     id="path643" />
  <path
     style="fill:#e1e6fc;stroke-width:0.0078125;fill-opacity:1"
     d="M 5.0039062,3.5 V 3 H 5.5 5.9960937 V 3.5 4 H 5.5 5.0039062 Z"
     id="path682" />
  <path
     style="fill:#e1e6fc;stroke-width:0.0078125;fill-opacity:1"
     d="M 7.0039062,3.5 V 3 H 7.5 7.9960937 V 3.5 4 H 7.5 7.0039062 Z"
     id="path721" />
  <path
     style="fill:#e1e6fc;stroke-width:0.0078125;fill-opacity:1"
     d="M 6.0039062,4.5 V 4 H 6.5 6.9960937 V 4.5 5 H 6.5 6.0039062 Z"
     id="path760" />
  <path
     style="fill:#e1e6fc;stroke-width:0.0078125;fill-opacity:1"
     d="M 4.0039062,4.5 V 4 H 4.5 4.9960937 V 4.5 5 H 4.5 4.0039062 Z"
     id="path799" />
  <path
     style="fill:#e1e6fc;stroke-width:0.0078125;fill-opacity:1"
     d="M 2.0039062,4.5 V 4 H 2.5 2.9960937 V 4.5 5 H 2.5 2.0039062 Z"
     id="path838" />
  <path
     style="fill:#e1e6fc;stroke-width:0.0078125;fill-opacity:1"
     d="M 0.00390625,4.5 V 4 H 0.5 0.99609375 V 4.5 5 H 0.5 0.00390625 Z"
     id="path877" />
  <path
     style="fill:#e1e6fc;stroke-width:0.0078125;fill-opacity:1"
     d="M 1.0039062,5.5 V 5 H 1.5 1.9960937 V 5.5 6 H 1.5 1.0039062 Z"
     id="path916" />
  <path
     style="fill:#e1e6fc;stroke-width:0.0078125;fill-opacity:1"
     d="M 0.00390625,6.5 V 6 H 0.5 0.99609375 V 6.5 7 H 0.5 0.00390625 Z"
     id="path955" />
  <path
     style="fill:#e1e6fc;stroke-width:0.0078125;fill-opacity:1"
     d="M 3.0039062,5.5 V 5 H 3.5 3.9960937 V 5.5 6 H 3.5 3.0039062 Z"
     id="path994" />
  <path
     style="fill:#e1e6fc;stroke-width:0.0078125;fill-opacity:1"
     d="M 2.0039062,6.5 V 6 H 2.5 2.9960937 V 6.5 7 H 2.5 2.0039062 Z"
     id="path1033" />
  <path
     style="fill:#e1e6fc;stroke-width:0.0078125;fill-opacity:1"
     d="M 5.0039062,5.5 V 5 H 5.5 5.9960937 V 5.5 6 H 5.5 5.0039062 Z"
     id="path1072" />
  <path
     style="fill:#e1e6fc;stroke-width:0.0078125;fill-opacity:1"
     d="M 4.0039062,6.5 V 6 H 4.5 4.9960937 V 6.5 7 H 4.5 4.0039062 Z"
     id="path1111" />
  <path
     style="fill:#e1e6fc;stroke-width:0.0078125;fill-opacity:1"
     d="M 7.0039062,5.5 V 5 H 7.5 7.9960937 V 5.5 6 H 7.5 7.0039062 Z"
     id="path1150" />
  <path
     style="fill:#e1e6fc;stroke-width:0.0078125;fill-opacity:1"
     d="M 6.0039062,6.5 V 6 H 6.5 6.9960937 V 6.5 7 H 6.5 6.0039062 Z"
     id="path1189" />
  <path
     style="fill:#e1e6fc;stroke-width:0.0078125;fill-opacity:1"
     d="M 7.0039062,7.5 V 7 H 7.5 7.9960937 V 7.5 8 H 7.5 7.0039062 Z"
     id="path1228" />
  <path
     style="fill:#e1e6fc;stroke-width:0.0078125;fill-opacity:1"
     d="M 5.0039062,7.5 V 7 H 5.5 5.9960937 V 7.5 8 H 5.5 5.0039062 Z"
     id="path1267" />
  <path
     style="fill:#e1e6fc;stroke-width:0.0078125;fill-opacity:1"
     d="M 3.0039062,7.5 V 7 H 3.5 3.9960937 V 7.5 8 H 3.5 3.0039062 Z"
     id="path1306" />
  <path
     style="fill:#000000;stroke-width:0.0078125"
     d="M 1.0039062,7.5 V 7 H 1.5 1.9960937 V 7.5 8 H 1.5 1.0039062 Z"
     id="path1345" />
  <path
     style="fill:#e1e6fc;stroke-width:0.0078125;fill-opacity:1"
     d="M 1.0039062,7.5 V 7 H 1.5 1.9960937 V 7.5 8 H 1.5 1.0039062 Z"
     id="path1575" />
  <path
     style="fill:#276cb5;stroke-width:0.0078125;fill-opacity:1"
     d="M 0.00390625,7.5 V 7 H 0.5 0.99609375 V 7.5 8 H 0.5 0.00390625 Z"
     id="path1614" />
  <path
     style="fill:#276cb5;stroke-width:0.0078125;fill-opacity:1"
     d="M 1.0039062,6.5 V 6 H 1.5 1.9960937 V 6.5 7 H 1.5 1.0039062 Z"
     id="path1690" />
  <path
     style="fill:#276cb5;stroke-width:0.0078125;fill-opacity:1"
     d="M 2.0039062,7.5 V 7 H 2.5 2.9960937 V 7.5 8 H 2.5 2.0039062 Z"
     id="path1729" />
  <path
     style="fill:#276cb5;stroke-width:0.0078125;fill-opacity:1"
     d="M 2.0039062,5.5 V 5 H 2.5 2.9960937 V 5.5 6 H 2.5 2.0039062 Z"
     id="path1768" />
  <path
     style="fill:#276cb5;stroke-width:0.0078125;fill-opacity:1"
     d="M 0.00390625,5.5 V 5 H 0.5 0.99609375 V 5.5 6 H 0.5 0.00390625 Z"
     id="path1807" />
  <path
     style="fill:#276cb5;stroke-width:0.0078125;fill-opacity:1"
     d="M 3.0039062,6.5 V 6 H 3.5 3.9960937 V 6.5 7 H 3.5 3.0039062 Z"
     id="path1846" />
  <path
     style="fill:#276cb5;stroke-width:0.0078125;fill-opacity:1"
     d="M 4.0039062,7.5 V 7 H 4.5 4.9960937 V 7.5 8 H 4.5 4.0039062 Z"
     id="path1885" />
  <path
     style="fill:#276cb5;stroke-width:0.0078125;fill-opacity:1"
     d="M 4.0039062,5.5 V 5 H 4.5 4.9960937 V 5.5 6 H 4.5 4.0039062 Z"
     id="path1924" />
  <path
     style="fill:#276cb5;stroke-width:0.0078125;fill-opacity:1"
     d="M 5.0039062,6.5 V 6 H 5.5 5.9960937 V 6.5 7 H 5.5 5.0039062 Z"
     id="path1963" />
  <path
     style="fill:#276cb5;stroke-width:0.0078125;fill-opacity:1"
     d="M 6.0039062,7.5 V 7 H 6.5 6.9960937 V 7.5 8 H 6.5 6.0039062 Z"
     id="path2002" />
  <path
     style="fill:#276cb5;stroke-width:0.0078125;fill-opacity:1"
     d="M 6.0039062,5.5 V 5 H 6.5 6.9960937 V 5.5 6 H 6.5 6.0039062 Z"
     id="path2041" />
  <path
     style="fill:#276cb5;stroke-width:0.0078125;fill-opacity:1"
     d="M 7.0039062,6.5 V 6 H 7.5 7.9960937 V 6.5 7 H 7.5 7.0039062 Z"
     id="path2080" />
  <path
     style="fill:#276cb5;stroke-width:0.0078125;fill-opacity:1"
     d="M 7.0039062,4.5 V 4 H 7.5 7.9960937 V 4.5 5 H 7.5 7.0039062 Z"
     id="path2119" />
  <path
     style="fill:#276cb5;stroke-width:0.0078125;fill-opacity:1"
     d="M 5.0039062,4.5 V 4 H 5.5 5.9960937 V 4.5 5 H 5.5 5.0039062 Z"
     id="path2158" />
  <path
     style="fill:#276cb5;stroke-width:0.0078125;fill-opacity:1"
     d="M 3.0039062,4.5 V 4 H 3.5 3.9960937 V 4.5 5 H 3.5 3.0039062 Z"
     id="path2197" />
  <path
     style="fill:#276cb5;stroke-width:0.0078125;fill-opacity:1"
     d="M 1.0039062,4.5 V 4 H 1.5 1.9960937 V 4.5 5 H 1.5 1.0039062 Z"
     id="path2236" />
  <path
     style="fill:#276cb5;stroke-width:0.0078125;fill-opacity:1"
     d="M 0.00390625,3.5 V 3 H 0.5 0.99609375 V 3.5 4 H 0.5 0.00390625 Z"
     id="path2275" />
  <path
     style="fill:#276cb5;stroke-width:0.0078125;fill-opacity:1"
     d="M 2.0039062,3.5 V 3 H 2.5 2.9960937 V 3.5 4 H 2.5 2.0039062 Z"
     id="path2314" />
  <path
     style="fill:#276cb5;stroke-width:0.0078125;fill-opacity:1"
     d="M 4.0039062,3.5 V 3 H 4.5 4.9960937 V 3.5 4 H 4.5 4.0039062 Z"
     id="path2353" />
  <path
     style="fill:#276cb5;stroke-width:0.0078125;fill-opacity:1"
     d="M 6.0039062,3.5 V 3 H 6.5 6.9960937 V 3.5 4 H 6.5 6.0039062 Z"
     id="path2392" />
  <path
     style="fill:#276cb5;stroke-width:0.0078125;fill-opacity:1"
     d="M 7.0039062,2.5 V 2 H 7.5 7.9960937 V 2.5 3 H 7.5 7.0039062 Z"
     id="path2431" />
  <path
     style="fill:#276cb5;stroke-width:0.0078125;fill-opacity:1"
     d="M 5.0039062,2.5 V 2 H 5.5 5.9960937 V 2.5 3 H 5.5 5.0039062 Z"
     id="path2470" />
  <path
     style="fill:#276cb5;stroke-width:0.0078125;fill-opacity:1"
     d="M 3.0039062,2.5 V 2 H 3.5 3.9960937 V 2.5 3 H 3.5 3.0039062 Z"
     id="path2509" />
  <path
     style="fill:#276cb5;stroke-width:0.0078125;fill-opacity:1"
     d="M 1.0039062,2.5 V 2 H 1.5 1.9960937 V 2.5 3 H 1.5 1.0039062 Z"
     id="path2548" />
  <path
     style="fill:#276cb5;stroke-width:0.0078125;fill-opacity:1"
     d="M 0.00390625,1.5 V 1 H 0.5 0.99609375 V 1.5 2 H 0.5 0.00390625 Z"
     id="path2587" />
  <path
     style="fill:#276cb5;stroke-width:0.0078125;fill-opacity:1"
     d="M 2.0039062,1.5 V 1 H 2.5 2.9960937 V 1.5 2 H 2.5 2.0039062 Z"
     id="path2626" />
  <path
     style="fill:#276cb5;stroke-width:0.0078125;fill-opacity:1"
     d="M 1.0039062,0.5 V 0 H 1.5 1.9960937 V 0.5 1 H 1.5 1.0039062 Z"
     id="path2665" />
  <path
     style="fill:#276cb5;stroke-width:0.0078125;fill-opacity:1"
     d="M 3.0039062,0.5 V 0 H 3.5 3.9960937 V 0.5 1 H 3.5 3.0039062 Z"
     id="path2704" />
  <path
     style="fill:#276cb5;stroke-width:0.0078125;fill-opacity:1"
     d="M 4.0039062,1.5 V 1 H 4.5 4.9960937 V 1.5 2 H 4.5 4.0039062 Z"
     id="path2743" />
  <path
     style="fill:#276cb5;stroke-width:0.0078125;fill-opacity:1"
     d="M 5.0039062,0.5 V 0 H 5.5 5.9960937 V 0.5 1 H 5.5 5.0039062 Z"
     id="path2782" />
  <path
     style="fill:#276cb5;stroke-width:0.0078125;fill-opacity:1"
     d="M 6.0039062,1.5 V 1 H 6.5 6.9960937 V 1.5 2 H 6.5 6.0039062 Z"
     id="path2821" />
  <path
     style="fill:#276cb5;stroke-width:0.0078125;fill-opacity:1"
     d="M 7.0039062,0.5 V 0 H 7.5 7.9960937 V 0.5 1 H 7.5 7.0039062 Z"
     id="path2860" />
</svg>
