<svg id="Warstwa_5" data-name="Warstwa 5" xmlns="http://www.w3.org/2000/svg" viewBox="0 0 1247.24 1247.24"><defs><style>.cls-1{fill:#508570;}.cls-2{fill:#d4d9bf;}.cls-3{fill:#2e4f5c;}</style></defs><title>szachownica z literkami</title><g id="ciemne"><rect class="cls-1" y="1091.34" width="155.91" height="155.91"/><rect class="cls-1" x="155.91" y="935.43" width="155.91" height="155.91"/><rect class="cls-1" y="779.53" width="155.91" height="155.91"/><rect class="cls-1" x="155.91" y="623.62" width="155.91" height="155.91"/><rect class="cls-1" x="311.81" y="467.72" width="155.91" height="155.91"/><rect class="cls-1" x="311.81" y="155.91" width="155.91" height="155.91"/><rect class="cls-1" x="311.81" y="779.53" width="155.91" height="155.91"/><rect class="cls-1" x="155.91" y="311.81" width="155.91" height="155.91"/><rect class="cls-1" y="467.72" width="155.91" height="155.91"/><rect class="cls-1" y="155.91" width="155.91" height="155.91"/><rect class="cls-1" x="935.43" y="779.53" width="155.91" height="155.91"/><rect class="cls-1" x="935.43" y="467.72" width="155.91" height="155.91"/><rect class="cls-1" x="935.43" y="155.91" width="155.91" height="155.91"/><rect class="cls-1" x="1091.34" width="155.91" height="155.91"/><rect class="cls-1" x="467.72" y="935.43" width="155.91" height="155.91"/><rect class="cls-1" x="623.62" y="779.53" width="155.91" height="155.91"/><rect class="cls-1" x="779.53" y="623.62" width="155.91" height="155.91"/><rect class="cls-1" x="779.53" y="935.43" width="155.91" height="155.91"/><rect class="cls-1" x="311.81" y="1091.34" width="155.91" height="155.91"/><rect class="cls-1" x="623.62" y="1091.34" width="155.91" height="155.91"/><rect class="cls-1" x="935.43" y="1091.34" width="155.91" height="155.91"/><rect class="cls-1" x="623.62" y="467.72" width="155.91" height="155.91"/><rect class="cls-1" x="467.72" y="623.62" width="155.91" height="155.91"/><rect class="cls-1" x="467.72" y="311.81" width="155.91" height="155.91"/><rect class="cls-1" x="779.53" y="311.81" width="155.91" height="155.91"/><rect class="cls-1" x="1091.34" y="623.62" width="155.91" height="155.91"/><rect class="cls-1" x="1091.34" y="935.43" width="155.91" height="155.91"/><rect class="cls-1" x="1091.34" y="311.81" width="155.91" height="155.91"/><rect class="cls-1" x="155.91" width="155.91" height="155.91"/><rect class="cls-1" x="467.72" width="155.91" height="155.91"/><rect class="cls-1" x="779.53" width="155.91" height="155.91"/><rect class="cls-1" x="623.62" y="155.91" width="155.91" height="155.91"/></g><g id="jasne"><rect class="cls-2" y="935.43" width="155.91" height="155.91"/><rect class="cls-2" x="155.91" y="779.53" width="155.91" height="155.91"/><rect class="cls-2" y="623.62" width="155.91" height="155.91"/><rect class="cls-2" x="155.91" y="467.72" width="155.91" height="155.91"/><rect class="cls-2" x="311.81" y="311.81" width="155.91" height="155.91"/><rect class="cls-2" x="311.81" width="155.91" height="155.91"/><rect class="cls-2" x="311.81" y="623.62" width="155.91" height="155.91"/><rect class="cls-2" x="155.91" y="155.91" width="155.91" height="155.91"/><rect class="cls-2" y="311.81" width="155.91" height="155.91"/><rect class="cls-2" width="155.91" height="155.91"/><rect class="cls-2" x="1091.34" y="1091.34" width="155.91" height="155.91"/><rect class="cls-2" x="1091.34" y="779.53" width="155.91" height="155.91"/><rect class="cls-2" x="1091.34" y="467.72" width="155.91" height="155.91"/><rect class="cls-2" x="1091.34" y="155.91" width="155.91" height="155.91"/><rect class="cls-2" x="935.43" y="623.62" width="155.91" height="155.91"/><rect class="cls-2" x="935.43" y="311.81" width="155.91" height="155.91"/><rect class="cls-2" x="935.43" width="155.91" height="155.91"/><rect class="cls-2" x="467.72" y="779.53" width="155.91" height="155.91"/><rect class="cls-2" x="623.62" y="623.62" width="155.91" height="155.91"/><rect class="cls-2" x="779.53" y="467.72" width="155.91" height="155.91"/><rect class="cls-2" x="779.53" y="779.53" width="155.91" height="155.91"/><rect class="cls-2" x="155.91" y="1091.34" width="155.91" height="155.91"/><rect class="cls-2" x="467.72" y="1091.34" width="155.91" height="155.91"/><rect class="cls-2" x="779.53" y="1091.34" width="155.91" height="155.91"/><rect class="cls-2" x="311.81" y="935.43" width="155.91" height="155.91"/><rect class="cls-2" x="623.62" y="935.43" width="155.91" height="155.91"/><rect class="cls-2" x="935.43" y="935.43" width="155.91" height="155.91"/><rect class="cls-2" x="623.62" y="311.81" width="155.91" height="155.91"/><rect class="cls-2" x="467.72" y="467.72" width="155.91" height="155.91"/><rect class="cls-2" x="467.72" y="155.91" width="155.91" height="155.91"/><rect class="cls-2" x="779.53" y="155.91" width="155.91" height="155.91"/><rect class="cls-2" x="623.62" width="155.91" height="155.91"/></g><path class="cls-2" d="M-128.92-156.11v11.87h-5v-5.2h-9.93v5.2h-5v-11.87c0-6.61,4-10.2,10-10.2S-128.92-162.72-128.92-156.11Zm-5,2.63v-3.1c0-3.69-2-5.45-5-5.45s-5,1.76-5,5.45v3.1Z" transform="translate(155.91 1386.84)"/><path class="cls-3" d="M25.63-150.16c0,3.75-3,5.92-8.68,5.92H6.28v-17.61H4v-4.09H16.33c5.42,0,8.21,2.26,8.21,5.64a5.22,5.22,0,0,1-2.88,4.78A5.35,5.35,0,0,1,25.63-150.16Zm-14.36-12V-157h4.44c2.45,0,3.78-.87,3.78-2.57s-1.33-2.55-3.78-2.55Zm9.27,11.47c0-1.82-1.36-2.69-4-2.69H11.27V-148h5.31C19.18-148,20.54-148.82,20.54-150.69Z" transform="translate(155.91 1386.84)"/><path class="cls-2" d="M160.78-155.09c0-6.54,5-11.22,11.78-11.22a11.18,11.18,0,0,1,8.93,3.84l-3.22,3a7,7,0,0,0-5.46-2.54,6.65,6.65,0,0,0-6.94,6.94,6.66,6.66,0,0,0,6.94,7,6.92,6.92,0,0,0,5.46-2.58l3.22,3a11.14,11.14,0,0,1-9,3.88C165.81-143.86,160.78-148.55,160.78-155.09Z" transform="translate(155.91 1386.84)"/><path class="cls-3" d="M338.6-155.09c0,6.58-4.87,10.85-12,10.85H318v-17.61h-2.29v-4.09h10.91C333.73-165.94,338.6-161.66,338.6-155.09Zm-5.09,0c0-4.15-2.82-6.73-7.13-6.73H323v13.46h3.35C330.69-148.36,333.51-150.93,333.51-155.09Z" transform="translate(155.91 1386.84)"/><path class="cls-2" d="M490.66-148.27v4H474.42v-17.61h-2.3v-4.09h18.11v4H479.41v4.71h9.52v3.91h-9.52v5Z" transform="translate(155.91 1386.84)"/><path class="cls-3" d="M636.11-161.91v5.74h10v4h-10v7.9h-5v-17.61H628.8v-4.09h18.69v4Z" transform="translate(155.91 1386.84)"/><path class="cls-2" d="M804.93-146.62a15,15,0,0,1-8.77,2.76c-6.83,0-11.85-4.69-11.85-11.23s5-11.22,11.94-11.22a11.55,11.55,0,0,1,9.08,3.75l-3.22,3A7.32,7.32,0,0,0,796.5-162c-4.22,0-7.1,2.82-7.1,6.94a6.7,6.7,0,0,0,7,7,8,8,0,0,0,3.9-.93v-3h-4.18v-3.35h8.77Z" transform="translate(155.91 1386.84)"/><path class="cls-3" d="M959.83-165.94v21.7h-5v-8.89H945v8.89h-5v-21.7h5v8.56h9.86v-8.56Z" transform="translate(155.91 1386.84)"/><path class="cls-3" d="M1080.83-291.06v21.7h-5V-287h-4.34v-4Z" transform="translate(155.91 1386.84)"/><path class="cls-2" d="M1085.44-428v4.09H1069v-3.25l8.37-7.91c1.92-1.83,2.26-2.94,2.26-4,0-1.7-1.18-2.7-3.47-2.7a5.34,5.34,0,0,0-4.5,2.17l-3.66-2.35c1.68-2.45,4.72-4,8.62-4,4.84,0,8.07,2.48,8.07,6.42,0,2.1-.59,4-3.63,6.85l-5,4.71Z" transform="translate(155.91 1386.84)"/><path class="cls-3" d="M1085.25-582.6c0,3.66-2.82,7-9,7a14.92,14.92,0,0,1-8.28-2.33l2-3.84a10.51,10.51,0,0,0,6.2,2c2.51,0,4.06-1,4.06-2.79s-1.21-2.67-4.06-2.67h-2.3v-3.32l4.47-5h-9.24v-4h15.19v3.26l-4.9,5.58C1083.27-588.21,1085.25-585.8,1085.25-582.6Z" transform="translate(155.91 1386.84)"/><path class="cls-2" d="M1087.75-737.47h-3.54v4.56h-4.89v-4.56h-11.69v-3.38l10.23-13.76h5.27l-9.49,13.05h5.83v-4.06h4.74v4.06h3.54Z" transform="translate(155.91 1386.84)"/><path class="cls-3" d="M1085.62-897.48c0,3.84-2.82,7.19-9,7.19a15,15,0,0,1-8.28-2.33l2-3.84a10.42,10.42,0,0,0,6.17,2c2.51,0,4.06-1,4.06-2.82s-1.12-2.82-5.06-2.82h-5.54l1.11-12.22h13.24v4h-9l-.34,4.13h1.76C1083.08-904.21,1085.62-901.33,1085.62-897.48Z" transform="translate(155.91 1386.84)"/><path class="cls-2" d="M1085.79-1049.61c0,4.44-3.62,7.23-8.21,7.23-6,0-9.71-3.75-9.71-10.76,0-7.5,4.53-11.69,11.07-11.69a11.73,11.73,0,0,1,6,1.49l-1.86,3.69a7.13,7.13,0,0,0-4.06-1.09c-3.63,0-6,2.14-6.11,6.3a7.32,7.32,0,0,1,5.36-1.92C1082.51-1056.36,1085.79-1053.7,1085.79-1049.61Zm-4.86.25c0-2-1.46-3.25-3.69-3.25s-3.75,1.36-3.75,3.25,1.39,3.23,3.81,3.23C1079.44-1046.13,1080.93-1047.37,1080.93-1049.36Z" transform="translate(155.91 1386.84)"/><path class="cls-3" d="M1084.87-1226.25v3.25l-8.07,18.45h-5.45l7.78-17.61h-7.19v3.53h-4.47v-7.62Z" transform="translate(155.91 1386.84)"/><path class="cls-2" d="M1086-1365.09c0,4.09-3.66,6.66-9.17,6.66s-9.12-2.57-9.12-6.66a5.52,5.52,0,0,1,3.29-5.12,5,5,0,0,1-2.51-4.46c0-3.82,3.41-6.2,8.34-6.2s8.4,2.38,8.4,6.2a5,5,0,0,1-2.54,4.46A5.51,5.51,0,0,1,1086-1365.09Zm-5.08-.16c0-1.92-1.58-3.1-4.09-3.1s-4,1.18-4,3.1,1.55,3.13,4,3.13S1081-1363.32,1081-1365.25Zm-7.44-9.21c0,1.65,1.3,2.67,3.35,2.67s3.41-1,3.41-2.67-1.37-2.72-3.41-2.72S1073.52-1376.16,1073.52-1374.46Z" transform="translate(155.91 1386.84)"/></svg>