<?xml version="1.0" encoding="utf-8"?>
<!-- Generator: Adobe Illustrator 24.0.1, SVG Export Plug-In . SVG Version: 6.00 Build 0)  -->
<svg version="1.1" id="Warstwa_1" xmlns="http://www.w3.org/2000/svg" xmlns:xlink="http://www.w3.org/1999/xlink" x="0px" y="0px"
	 viewBox="0 0 1247.24 1247.24" style="enable-background:new 0 0 1247.24 1247.24;" xml:space="preserve">
<style type="text/css">
	.st0{fill:#D4D9BF;}
	.st1{font-family:'mBankLite-Bold';}
	.st2{font-size:31px;}
	.st3{fill:#2E4F5C;}
	.st4{fill:none;}
</style>
<text transform="matrix(1 0 0 1 6.307 1240.7085)" class="st0 st1 st2">A</text>
<g>
	<text transform="matrix(1 0 0 1 161.2283 1240.7083)" class="st3 st1 st2">B</text>
</g>
<text transform="matrix(1 0 0 1 317.0935 1240.7084)" class="st0 st1 st2">C</text>
<g>
	<text transform="matrix(1 0 0 1 472.9587 1240.7083)" class="st3 st1 st2">D</text>
</g>
<text transform="matrix(1 0 0 1 629.3631 1240.7084)" class="st0 st1 st2">E</text>
<g>
	<text transform="matrix(1 0 0 1 786.0373 1240.7084)" class="st3 st1 st2">F</text>
</g>
<text transform="matrix(1 0 0 1 940.6234 1240.7084)" class="st0 st1 st2">G</text>
<g>
	<text transform="matrix(1 0 0 1 1094.8706 1240.7083)" class="st3 st1 st2">H </text>
</g>
<g>
	<text transform="matrix(1 0 0 1 1228.7688 1115.5845)" class="st3 st1 st2">1</text>
</g>
<text transform="matrix(1 0 0 1 1225.5337 961.0678)" class="st0 st1 st2">2</text>
<g>
	<text transform="matrix(1 0 0 1 1225.5334 808.9779)" class="st3 st1 st2">3</text>
</g>
<text transform="matrix(1 0 0 1 1224.1858 652.0341)" class="st0 st1 st2">4</text>
<g>
	<text transform="matrix(1 0 0 1 1225.5332 494.2809)" class="st3 st1 st2">5</text>
</g>
<text transform="matrix(1 0 0 1 1224.1854 342.1914)" class="st0 st1 st2">6</text>
<g>
	<text transform="matrix(1 0 0 1 1224.1854 180.3933)" class="st3 st1 st2">7</text>
</g>
<text transform="matrix(1 0 0 1 1224.1854 26.1465)" class="st0 st1 st2">8</text>
<rect x="1.61" y="-1.9" class="st4" width="1247.24" height="1247.24"/>
</svg>
