<svg id="Warstwa_5" data-name="Warstwa 5" xmlns="http://www.w3.org/2000/svg" viewBox="0 0 1247.24 1249.8"><defs><style>.cls-1{fill:#508570;}.cls-2,.cls-3{fill:#d4d9bf;}.cls-3,.cls-4{font-size:31px;font-family:mBankLite-Bold, mBank Lite;font-weight:700;}.cls-4{fill:#2e4f5c;}</style></defs><title>szachownica zielona</title><g id="ciemne"><rect class="cls-1" y="1091.34" width="155.91" height="155.91"/><rect class="cls-1" x="155.91" y="935.43" width="155.91" height="155.91"/><rect class="cls-1" y="779.53" width="155.91" height="155.91"/><rect class="cls-1" x="155.91" y="623.62" width="155.91" height="155.91"/><rect class="cls-1" x="311.81" y="467.72" width="155.91" height="155.91"/><rect class="cls-1" x="311.81" y="155.91" width="155.91" height="155.91"/><rect class="cls-1" x="311.81" y="779.53" width="155.91" height="155.91"/><rect class="cls-1" x="155.91" y="311.81" width="155.91" height="155.91"/><rect class="cls-1" y="467.72" width="155.91" height="155.91"/><rect class="cls-1" y="155.91" width="155.91" height="155.91"/><rect class="cls-1" x="935.43" y="779.53" width="155.91" height="155.91"/><rect class="cls-1" x="935.43" y="467.72" width="155.91" height="155.91"/><rect class="cls-1" x="935.43" y="155.91" width="155.91" height="155.91"/><rect class="cls-1" x="1091.34" width="155.91" height="155.91"/><rect class="cls-1" x="467.72" y="935.43" width="155.91" height="155.91"/><rect class="cls-1" x="623.62" y="779.53" width="155.91" height="155.91"/><rect class="cls-1" x="779.53" y="623.62" width="155.91" height="155.91"/><rect class="cls-1" x="779.53" y="935.43" width="155.91" height="155.91"/><rect class="cls-1" x="311.81" y="1091.34" width="155.91" height="155.91"/><rect class="cls-1" x="623.62" y="1091.34" width="155.91" height="155.91"/><rect class="cls-1" x="935.43" y="1091.34" width="155.91" height="155.91"/><rect class="cls-1" x="623.62" y="467.72" width="155.91" height="155.91"/><rect class="cls-1" x="467.72" y="623.62" width="155.91" height="155.91"/><rect class="cls-1" x="467.72" y="311.81" width="155.91" height="155.91"/><rect class="cls-1" x="779.53" y="311.81" width="155.91" height="155.91"/><rect class="cls-1" x="1091.34" y="623.62" width="155.91" height="155.91"/><rect class="cls-1" x="1091.34" y="935.43" width="155.91" height="155.91"/><rect class="cls-1" x="1091.34" y="311.81" width="155.91" height="155.91"/><rect class="cls-1" x="155.91" width="155.91" height="155.91"/><rect class="cls-1" x="467.72" width="155.91" height="155.91"/><rect class="cls-1" x="779.53" width="155.91" height="155.91"/><rect class="cls-1" x="623.62" y="155.91" width="155.91" height="155.91"/></g><g id="jasne"><rect class="cls-2" y="935.43" width="155.91" height="155.91"/><rect class="cls-2" x="155.91" y="779.53" width="155.91" height="155.91"/><rect class="cls-2" y="623.62" width="155.91" height="155.91"/><rect class="cls-2" x="155.91" y="467.72" width="155.91" height="155.91"/><rect class="cls-2" x="311.81" y="311.81" width="155.91" height="155.91"/><rect class="cls-2" x="311.81" width="155.91" height="155.91"/><rect class="cls-2" x="311.81" y="623.62" width="155.91" height="155.91"/><rect class="cls-2" x="155.91" y="155.91" width="155.91" height="155.91"/><rect class="cls-2" y="311.81" width="155.91" height="155.91"/><rect class="cls-2" width="155.91" height="155.91"/><rect class="cls-2" x="1091.34" y="1091.34" width="155.91" height="155.91"/><rect class="cls-2" x="1091.34" y="779.53" width="155.91" height="155.91"/><rect class="cls-2" x="1091.34" y="467.72" width="155.91" height="155.91"/><rect class="cls-2" x="1091.34" y="155.91" width="155.91" height="155.91"/><rect class="cls-2" x="935.43" y="623.62" width="155.91" height="155.91"/><rect class="cls-2" x="935.43" y="311.81" width="155.91" height="155.91"/><rect class="cls-2" x="935.43" width="155.91" height="155.91"/><rect class="cls-2" x="467.72" y="779.53" width="155.91" height="155.91"/><rect class="cls-2" x="623.62" y="623.62" width="155.91" height="155.91"/><rect class="cls-2" x="779.53" y="467.72" width="155.91" height="155.91"/><rect class="cls-2" x="779.53" y="779.53" width="155.91" height="155.91"/><rect class="cls-2" x="155.91" y="1091.34" width="155.91" height="155.91"/><rect class="cls-2" x="467.72" y="1091.34" width="155.91" height="155.91"/><rect class="cls-2" x="779.53" y="1091.34" width="155.91" height="155.91"/><rect class="cls-2" x="311.81" y="935.43" width="155.91" height="155.91"/><rect class="cls-2" x="623.62" y="935.43" width="155.91" height="155.91"/><rect class="cls-2" x="935.43" y="935.43" width="155.91" height="155.91"/><rect class="cls-2" x="623.62" y="311.81" width="155.91" height="155.91"/><rect class="cls-2" x="467.72" y="467.72" width="155.91" height="155.91"/><rect class="cls-2" x="467.72" y="155.91" width="155.91" height="155.91"/><rect class="cls-2" x="779.53" y="155.91" width="155.91" height="155.91"/><rect class="cls-2" x="623.62" width="155.91" height="155.91"/></g><text class="cls-3" transform="translate(4.69 1242.61)">A</text><text class="cls-4" transform="translate(159.61 1242.61)">B</text><text class="cls-3" transform="translate(315.48 1242.61)">C</text><text class="cls-4" transform="translate(471.34 1242.61)">D</text><text class="cls-3" transform="translate(627.75 1242.61)">E</text><text class="cls-4" transform="translate(784.42 1242.61)">F</text><text class="cls-3" transform="translate(939.01 1242.61)">G</text><text class="cls-4" transform="translate(1093.26 1242.61)">H </text><text class="cls-4" transform="translate(1227.15 1117.48)">1</text><text class="cls-3" transform="translate(1223.92 962.97)">2</text><text class="cls-4" transform="translate(1223.92 810.88)">3</text><text class="cls-3" transform="translate(1222.57 653.93)">4</text><text class="cls-4" transform="translate(1223.92 496.18)">5</text><text class="cls-3" transform="translate(1222.57 344.09)">6</text><text class="cls-4" transform="translate(1222.57 182.29)">7</text><text class="cls-3" transform="translate(1222.57 28.05)">8</text></svg>