<svg id="Warstwa_1" data-name="Warstwa 1" xmlns="http://www.w3.org/2000/svg" viewBox="0 0 145.27 25.05"><defs><style>.cls-1{fill:#36544a;}</style></defs><title>logo5</title><path class="cls-1" d="M293.06,31.28a.67.67,0,0,1,.66-.66h8.45a7.76,7.76,0,1,1,0,15.52h-3.68v8.18a.7.7,0,0,1-.67.66h-4.14a.67.67,0,0,1-.66-.66Zm8.79,9.78a2.74,2.74,0,0,0,2.77-2.75,2.66,2.66,0,0,0-2.77-2.57h-3.32v5.32Z" transform="translate(-293.06 -30.28)"/><path class="cls-1" d="M318.23,40.71A7.31,7.31,0,1,1,310.94,48,7.36,7.36,0,0,1,318.23,40.71Zm0,10.13A2.82,2.82,0,0,0,321,48a2.77,2.77,0,1,0-5.54,0A2.82,2.82,0,0,0,318.23,50.84Z" transform="translate(-293.06 -30.28)"/><path class="cls-1" d="M328.88,31.28a.7.7,0,0,1,.67-.66h3.86a.69.69,0,0,1,.66.66v23a.69.69,0,0,1-.66.66h-3.86a.7.7,0,0,1-.67-.66Z" transform="translate(-293.06 -30.28)"/><path class="cls-1" d="M367.34,30.28a11.8,11.8,0,0,1,8.48,3.23.65.65,0,0,1,0,1l-2.73,2.81a.61.61,0,0,1-.88,0,7.21,7.21,0,0,0-4.73-1.77,7.12,7.12,0,0,0,0,14.23,7.43,7.43,0,0,0,4.69-1.67.71.71,0,0,1,.92,0L375.89,51a.69.69,0,0,1,0,.94,12,12,0,0,1-8.51,3.37,12.52,12.52,0,1,1,0-25Z" transform="translate(-293.06 -30.28)"/><path class="cls-1" d="M379.15,31.28a.7.7,0,0,1,.67-.66h3.89a.7.7,0,0,1,.67.66V41.51a7.49,7.49,0,0,1,3.26-.8c4.41,0,6.69,3.45,6.69,7.31v6.3a.7.7,0,0,1-.67.66H390a.67.67,0,0,1-.67-.66V48a2.57,2.57,0,0,0-2.56-2.75c-1.12,0-2.34.63-2.34,2.75v6.37c0,.45-.18.66-.78.66h-3.78a.7.7,0,0,1-.67-.66Z" transform="translate(-293.06 -30.28)"/><path class="cls-1" d="M404.6,40.71a6.53,6.53,0,0,1,6.66,6.54,7.3,7.3,0,0,1-.07.94.67.67,0,0,1-.67.59h-8.41a2.6,2.6,0,0,0,2.7,2.3,4.69,4.69,0,0,0,2.46-.83.6.6,0,0,1,.87,0l1.75,2.08a.75.75,0,0,1,0,1,7.16,7.16,0,0,1-5.19,2,7.31,7.31,0,0,1-.07-14.61Zm1.72,5.36a1.89,1.89,0,0,0-1.86-1.63,2,2,0,0,0-1.89,1.63Z" transform="translate(-293.06 -30.28)"/><path class="cls-1" d="M413.72,53.45l1.22-2.4a.61.61,0,0,1,.74-.28,7.83,7.83,0,0,0,3.15.9.61.61,0,0,0,.67-.62c0-.35-.21-.84-2-1.47-2.73-.94-3.92-2.5-3.92-4.66,0-2.33,1.68-4.21,5.47-4.21a9.31,9.31,0,0,1,4.66,1.08c.31.21.56.52.35.87L422.76,45a.62.62,0,0,1-.74.21,8.08,8.08,0,0,0-3-.8c-.46,0-.78.1-.78.48s.39.7,1.58,1.12c2.84,1,4.8,2.08,4.8,4.87,0,2.43-2,4.41-5.92,4.41A8.58,8.58,0,0,1,414,54.18C413.72,54,413.54,53.76,413.72,53.45Z" transform="translate(-293.06 -30.28)"/><path class="cls-1" d="M427.39,53.45l1.23-2.4a.59.59,0,0,1,.73-.28,7.84,7.84,0,0,0,3.16.9.61.61,0,0,0,.66-.62c0-.35-.21-.84-2-1.47-2.73-.94-3.92-2.5-3.92-4.66,0-2.33,1.68-4.21,5.47-4.21a9.31,9.31,0,0,1,4.66,1.08c.31.21.56.52.35.87L436.43,45a.62.62,0,0,1-.73.21,8.16,8.16,0,0,0-3-.8c-.46,0-.77.1-.77.48s.38.7,1.57,1.12c2.84,1,4.8,2.08,4.8,4.87,0,2.43-2,4.41-5.92,4.41a8.58,8.58,0,0,1-4.77-1.14C427.39,54,427.21,53.76,427.39,53.45Z" transform="translate(-293.06 -30.28)"/><circle class="cls-1" cx="49.31" cy="6.6" r="2.68"/><rect class="cls-1" x="44.19" y="21.71" width="10.23" height="2.99" rx="0.87"/><rect class="cls-1" x="45.44" y="11.35" width="7.73" height="2.38" rx="0.96"/><path class="cls-1" d="M344.82,53H339.9a.52.52,0,0,1-.52-.59l.91-6.92a.51.51,0,0,1,.51-.45h3a.53.53,0,0,1,.52.45l1,6.91A.52.52,0,0,1,344.82,53Z" transform="translate(-293.06 -30.28)"/></svg>