<svg id="Warstwa_1" data-name="Warstwa 1" xmlns="http://www.w3.org/2000/svg" viewBox="0 0 145.27 25.05"><defs><style>.cls-1{fill:#36544a;}</style></defs><title>logo4</title><path class="cls-1" d="M293.06,83.33a.66.66,0,0,1,.66-.66h8.45a7.76,7.76,0,1,1,0,15.51h-3.68v8.18a.69.69,0,0,1-.67.66h-4.14a.66.66,0,0,1-.66-.66Zm8.79,9.78a2.75,2.75,0,0,0,2.77-2.75,2.67,2.67,0,0,0-2.77-2.58h-3.32v5.33Z" transform="translate(-293.06 -82.32)"/><path class="cls-1" d="M318.23,92.76a7.31,7.31,0,1,1-7.29,7.27A7.36,7.36,0,0,1,318.23,92.76Zm0,10.12A2.81,2.81,0,0,0,321,100a2.77,2.77,0,1,0-5.54,0A2.81,2.81,0,0,0,318.23,102.88Z" transform="translate(-293.06 -82.32)"/><path class="cls-1" d="M328.88,83.33a.69.69,0,0,1,.67-.66h3.86a.68.68,0,0,1,.66.66v23a.68.68,0,0,1-.66.66h-3.86a.69.69,0,0,1-.67-.66Z" transform="translate(-293.06 -82.32)"/><path class="cls-1" d="M367.34,82.32a11.81,11.81,0,0,1,8.48,3.24.64.64,0,0,1,0,1l-2.73,2.82a.63.63,0,0,1-.88,0,7.16,7.16,0,0,0-4.73-1.78,7.12,7.12,0,0,0,0,14.23,7.43,7.43,0,0,0,4.69-1.67.7.7,0,0,1,.92,0l2.73,2.89a.68.68,0,0,1,0,.93,12,12,0,0,1-8.51,3.38,12.53,12.53,0,1,1,0-25.05Z" transform="translate(-293.06 -82.32)"/><path class="cls-1" d="M379.15,83.33a.69.69,0,0,1,.67-.66h3.89a.69.69,0,0,1,.67.66V93.56a7.49,7.49,0,0,1,3.26-.8c4.41,0,6.69,3.44,6.69,7.3v6.3a.69.69,0,0,1-.67.66H390a.66.66,0,0,1-.67-.66V100a2.56,2.56,0,0,0-2.56-2.74c-1.12,0-2.34.62-2.34,2.74v6.37c0,.45-.18.66-.78.66h-3.78a.69.69,0,0,1-.67-.66Z" transform="translate(-293.06 -82.32)"/><path class="cls-1" d="M404.6,92.76a6.52,6.52,0,0,1,6.66,6.54,7.57,7.57,0,0,1-.07.94.67.67,0,0,1-.67.59h-8.41a2.6,2.6,0,0,0,2.7,2.3,4.61,4.61,0,0,0,2.46-.84.61.61,0,0,1,.87,0l1.75,2.09a.75.75,0,0,1,0,1,7.36,7.36,0,1,1-5.26-12.63Zm1.72,5.36a1.89,1.89,0,0,0-1.86-1.64,2,2,0,0,0-1.89,1.64Z" transform="translate(-293.06 -82.32)"/><path class="cls-1" d="M413.72,105.49l1.22-2.4a.61.61,0,0,1,.74-.28,7.77,7.77,0,0,0,3.15.91.61.61,0,0,0,.67-.63c0-.35-.21-.83-2-1.46-2.73-.94-3.92-2.51-3.92-4.66,0-2.33,1.68-4.21,5.47-4.21a9.31,9.31,0,0,1,4.66,1.08c.31.2.56.52.35.87l-1.3,2.36a.62.62,0,0,1-.74.21,8.08,8.08,0,0,0-3-.8c-.46,0-.78.1-.78.49s.39.69,1.58,1.11c2.84,1,4.8,2.09,4.8,4.87,0,2.44-2,4.42-5.92,4.42a8.48,8.48,0,0,1-4.77-1.15C413.72,106,413.54,105.8,413.72,105.49Z" transform="translate(-293.06 -82.32)"/><path class="cls-1" d="M427.39,105.49l1.23-2.4a.59.59,0,0,1,.73-.28,7.78,7.78,0,0,0,3.16.91.61.61,0,0,0,.66-.63c0-.35-.21-.83-2-1.46-2.73-.94-3.92-2.51-3.92-4.66,0-2.33,1.68-4.21,5.47-4.21a9.31,9.31,0,0,1,4.66,1.08c.31.2.56.52.35.87l-1.3,2.36a.62.62,0,0,1-.73.21,8.16,8.16,0,0,0-3-.8c-.46,0-.77.1-.77.49s.38.69,1.57,1.11c2.84,1,4.8,2.09,4.8,4.87,0,2.44-2,4.42-5.92,4.42a8.48,8.48,0,0,1-4.77-1.15C427.39,106,427.21,105.8,427.39,105.49Z" transform="translate(-293.06 -82.32)"/><circle class="cls-1" cx="49.31" cy="7.81" r="2.68"/><rect class="cls-1" x="44.19" y="21.71" width="10.23" height="2.99" rx="0.87"/><rect class="cls-1" x="45.44" y="12.88" width="7.73" height="2.38" rx="0.96"/><path class="cls-1" d="M344.82,105H339.9a.52.52,0,0,1-.52-.59l.91-6.91a.52.52,0,0,1,.51-.46h3a.54.54,0,0,1,.52.45l1,6.92A.52.52,0,0,1,344.82,105Z" transform="translate(-293.06 -82.32)"/></svg>