<?xml version="1.0" encoding="utf-8"?>
<!-- Generator: Adobe Illustrator 24.0.1, SVG Export Plug-In . SVG Version: 6.00 Build 0)  -->
<svg version="1.1" id="Warstwa_1" xmlns="http://www.w3.org/2000/svg" xmlns:xlink="http://www.w3.org/1999/xlink" x="0px" y="0px"
	 viewBox="0 0 155.91 155.91" style="enable-background:new 0 0 155.91 155.91;" xml:space="preserve">
<style type="text/css">
	.st0{display:none;}
	.st1{display:inline;}
	.st2{fill:#FBF4D7;stroke:#424039;stroke-width:3;stroke-miterlimit:10;}
	.st3{display:inline;fill:#FBF4D7;stroke:#424039;stroke-width:3;stroke-miterlimit:10;}
	.st4{display:inline;fill:#AB6D30;stroke:#DBC7B4;stroke-width:3;stroke-miterlimit:10;}
	.st5{fill:#AB6D30;stroke:#DBC7B4;stroke-width:3;stroke-miterlimit:10;}
</style>
<g class="st0">
	<g class="st1">
		<path class="st2" d="M120.03,126.4v11.4c0,2.16-1.75,3.92-3.92,3.92H39.8c-2.17,0-3.92-1.76-3.92-3.92v-11.4
			c0-2.16,1.75-3.92,3.92-3.92h76.31C118.28,122.48,120.03,124.24,120.03,126.4z"/>
		<path class="st2" d="M121.04,98.8v3.39c0,8.51-4.41,15.99-11.07,20.29H45.93c-6.65-4.29-11.06-11.77-11.06-20.29V98.8
			c0-11.77,8.43-21.57,19.57-23.69c-1.43-3.06-2.21-6.47-2.21-10.07v-3.4c0-10.26,6.41-19.04,15.46-22.52
			c-3.17-2.68-5.17-6.68-5.17-11.16V25.9c0-8.08,6.55-14.63,14.63-14.63h1.62c8.08,0,14.63,6.55,14.63,14.63v2.07
			c0,4.47-2,8.47-5.16,11.16c9.04,3.48,15.45,12.26,15.45,22.52v3.4c0,3.6-0.79,7.01-2.21,10.07
			C112.6,77.23,121.04,87.03,121.04,98.8z"/>
	</g>
</g>
<g class="st0">
	<g class="st1">
		<path class="st2" d="M87.94,18.33v6.46c0,3.14-2.14,5.77-5.05,6.53c-0.54,0.15-1.11,0.22-1.7,0.22h-6.46
			c-0.59,0-1.16-0.07-1.7-0.22c-2.91-0.76-5.05-3.39-5.05-6.53v-6.46c0-3.73,3.02-6.75,6.75-6.75h6.46
			C84.92,11.58,87.94,14.61,87.94,18.33z"/>
		<path class="st2" d="M104.9,100.94l2.09-2.09c13.14-13.14,13.14-34.43,0-47.57L92.4,36.7c-2.72-2.72-6.02-4.51-9.51-5.37
			c-0.54,0.15-1.11,0.22-1.7,0.22h-6.46c-0.59,0-1.16-0.07-1.7-0.22c-3.48,0.86-6.79,2.66-9.51,5.37L48.93,51.28
			c-13.14,13.14-13.14,34.43,0,47.57l0.75,0.75c-4.53,2.47-7.61,7.28-7.61,12.8v6.64h68.38v-6.64
			C110.45,107.76,108.29,103.63,104.9,100.94z M90.55,66.45c0,1.47-1.2,2.67-2.67,2.67h-6.94v22.51c0,1.47-1.19,2.67-2.67,2.67
			h-0.66c-1.47,0-2.66-1.2-2.66-2.67V69.11h-6.94c-1.47,0-2.67-1.2-2.67-2.67v-1.19c0-1.48,1.2-2.67,2.67-2.67h6.94v-7.38
			c0-1.47,1.19-2.67,2.66-2.67h0.66c1.48,0,2.67,1.2,2.67,2.67v7.38h6.94c1.47,0,2.67,1.19,2.67,2.67V66.45z"/>
		<path class="st2" d="M127.58,122.96v14.52c0,2.17-1.75,3.92-3.92,3.92h-91.4c-2.17,0-3.92-1.75-3.92-3.92v-14.52
			c0-2.16,1.75-3.91,3.92-3.91h91.4C125.83,119.04,127.58,120.8,127.58,122.96z"/>
	</g>
</g>
<g class="st0">
	<g class="st1">
		<path class="st2" d="M127.44,123.38v14.45c0,2.17-1.75,3.92-3.92,3.92H32.4c-2.16,0-3.92-1.75-3.92-3.92v-14.45
			c0-2.17,1.76-3.92,3.92-3.92h91.12C125.69,119.45,127.44,121.21,127.44,123.38z"/>
		<path class="st2" d="M116.42,44.28c0,0.59-0.02,1.2-0.05,1.79l-0.45,7.86l-11.5,44.58c-0.99,3.84,1.75,7.58,3.68,11.04l5.5,9.9
			H41.72L85.6,57.93c0.94-1.32,0-3.17-1.64-3.17c-2.93,0-4.45,0.5-5.67,1.43c-1.22,0.93-2.13,2.29-3.82,3.99
			c-3.28,3.27-7.15,5.56-12.34,5.56c-4.05,0-8.14-1.04-11.39-3.19l-9.96-11.01l34.74-40.3C102.08,11.24,116.42,25.69,116.42,44.28z"
			/>
	</g>
</g>
<g class="st0">
	<g class="st1">
		<path class="st2" d="M109.73,111.93v4.58c0,0.19,0,0.38-0.01,0.57H46.2c-0.02-0.19-0.02-0.38-0.02-0.57v-4.58
			c0-3,0.9-5.79,2.47-8.11h58.62C108.83,106.14,109.73,108.93,109.73,111.93z"/>
		<path class="st2" d="M124.07,121v12.94c0,2.16-1.75,3.92-3.92,3.92H35.75c-2.17,0-3.92-1.76-3.92-3.92V121
			c0-2.17,1.75-3.92,3.92-3.92h84.39C122.32,117.07,124.07,118.82,124.07,121z"/>
		<g>
			<path class="st2" d="M127.58,62.62v26.59c0,8.07-6.55,14.61-14.61,14.61H42.93c-8.06,0-14.6-6.54-14.6-14.61V63.83l1.01-6.53
				l5.83-37.73c0-1.87,1.27-3.38,2.84-3.38h16.54c1.57,0,2.84,1.51,2.84,3.38v28.44h9.43V18.06c0-1.62,1.31-2.93,2.93-2.93h16.38
				c1.61,0,2.92,1.31,2.92,2.93v29.96h9.43v-29.5c0-1.87,1.27-3.39,2.84-3.39h16.54c1.57,0,2.84,1.52,2.84,3.39l5.92,38.98
				C127.25,59.09,127.58,60.81,127.58,62.62z"/>
			<path class="st2" d="M29.34,57.31l-1.01,6.53v-1.22C28.34,60.74,28.69,58.94,29.34,57.31z"/>
		</g>
	</g>
</g>
<g class="st0">
	<path class="st3" d="M77.96,96.35v26.41H39.52c-1.95,0-3.53,1.58-3.53,3.53v0.09c-12.33-4.24-21.19-15.93-21.19-29.7V79.72
		c0-8.16,6.62-14.77,14.78-14.77h16.97c8.02,0,15.34,3,20.89,7.95c0.98,1.34,2.09,2.5,3.31,3.42c0,0,0.01,0,0.01,0.01
		C75.26,81.76,77.96,88.74,77.96,96.35z"/>
	<path class="st3" d="M141.12,79.72v16.74c0,13.81-8.85,25.57-21.18,29.88v-0.04c0-1.95-1.58-3.53-3.53-3.53H77.96V96.35
		c0.06-7.75,2.9-14.85,7.58-20.32c0.01,0,0.02-0.01,0.03-0.02c0.72-0.59,1.41-1.27,2.06-2.03c0.21-0.25,0.42-0.49,0.61-0.75
		c0-0.01,0.01-0.02,0.01-0.02c5.63-5.14,13.12-8.27,21.35-8.27h16.74C134.51,64.95,141.12,71.55,141.12,79.72z"/>
	<path class="st3" d="M93.08,57.71c0,6.13-1.85,11.64-4.83,15.51c0,0-0.01,0.01-0.01,0.02c-0.2,0.25-0.4,0.5-0.61,0.75
		c-0.65,0.76-1.34,1.44-2.06,2.03c-0.02,0.01-0.03,0.02-0.03,0.02c-2.23,1.82-4.81,2.85-7.58,2.85c-2.61,0-5.06-0.93-7.2-2.55
		c0-0.01-0.01-0.01-0.01-0.01c-1.22-0.93-2.34-2.08-3.31-3.42c-2.84-3.85-4.6-9.22-4.6-15.19c0-10.47,5.45-19.19,12.59-20.87V25.31
		h-6.18c-1.07,0-1.93-0.87-1.93-1.93v-1.66c0-1.06,0.86-1.93,1.93-1.93h6.18v-6.57c0-1.06,0.87-1.92,1.93-1.92h1.21
		c1.06,0,1.92,0.86,1.92,1.92v6.57h6.19c1.06,0,1.93,0.87,1.93,1.93v1.66c0,1.06-0.87,1.93-1.93,1.93h-6.19v11.53
		C87.63,38.52,93.08,47.24,93.08,57.71z"/>
	<path class="st3" d="M119.93,126.3v11.85c0,1.95-1.58,3.53-3.53,3.53H39.52c-1.95,0-3.53-1.59-3.53-3.53V126.3
		c0-1.96,1.59-3.53,3.53-3.53h76.88C118.36,122.76,119.93,124.34,119.93,126.3z"/>
</g>
<g class="st0">
	<path class="st3" d="M123.74,122.75v12.79c0,2.17-1.75,3.92-3.92,3.92H36.1c-2.17,0-3.92-1.75-3.92-3.92v-12.79
		c0-2.16,1.75-3.91,3.92-3.91h83.72C121.99,118.84,123.74,120.59,123.74,122.75z"/>
	<path class="st3" d="M136.53,83.59c0,10.14-4.11,19.32-10.76,25.95c-4.3,4.31-9.68,7.56-15.69,9.3H45.85
		c-15.28-4.44-26.46-18.53-26.46-35.25c0-5.15,2.09-9.83,5.47-13.21c2.17-2.17,4.89-3.82,7.92-4.7L28.95,46.4
		c-0.05-0.16-0.08-0.3-0.1-0.46c1.78,0.61,3.78,0.67,5.72,0.06c1.36-0.43,2.55-1.14,3.53-2.08l7.61,20.99h6.84L52.36,38
		c1.35,0.58,2.85,0.84,4.41,0.7c1.6-0.14,3.05-0.67,4.29-1.51l4.54,27.72h4.82l3.23-33.92c1.23,0.6,2.61,0.94,4.08,0.94
		c1.42,0,2.76-0.31,3.96-0.89l2.66,33.86h5.27l5.14-27.7c1.22,0.82,2.63,1.35,4.19,1.51c0.31,0.03,0.63,0.05,0.94,0.05
		c1.04,0,2.05-0.18,2.99-0.51l0.54,26.66h6.56l7.12-21.04c1.01,0.93,2.24,1.66,3.63,2.07c0.87,0.25,1.74,0.38,2.6,0.38
		c1.08,0,2.13-0.19,3.12-0.56c-0.02,0.16-0.06,0.31-0.11,0.47l-1.74,19.94C131.57,68.88,136.53,75.66,136.53,83.59z"/>
	<path class="st3" d="M132.53,37.1c0,0.86-0.13,1.73-0.38,2.6c-0.86,2.93-3.04,5.1-5.71,6.06c-0.99,0.37-2.04,0.56-3.12,0.56
		c-0.86,0-1.73-0.13-2.6-0.38c-1.4-0.41-2.62-1.13-3.63-2.07c-2.5-2.28-3.63-5.88-2.6-9.36c1.19-4.01,4.85-6.61,8.83-6.61
		c0.86,0,1.73,0.13,2.6,0.38C129.92,29.46,132.53,33.12,132.53,37.1z"/>
	<path class="st3" d="M109.08,29.54c0,0.31-0.02,0.63-0.05,0.94c-0.38,3.68-2.86,6.63-6.15,7.77c-0.94,0.34-1.95,0.51-2.99,0.51
		c-0.31,0-0.63-0.02-0.94-0.05c-1.55-0.16-2.97-0.69-4.19-1.51c-2.74-1.83-4.4-5.07-4.04-8.57c0.48-4.74,4.48-8.28,9.14-8.28
		c0.31,0,0.63,0.02,0.94,0.05C105.55,20.88,109.08,24.89,109.08,29.54z"/>
	<path class="st3" d="M86.94,22.73c0,2.54-1.03,4.84-2.7,6.51c-0.73,0.73-1.6,1.35-2.55,1.8c-1.2,0.58-2.54,0.89-3.96,0.89
		c-1.47,0-2.85-0.35-4.08-0.94c-3.03-1.51-5.12-4.64-5.12-8.26c0-2.54,1.03-4.85,2.7-6.52c1.66-1.67,3.96-2.7,6.51-2.7
		c2.54,0,4.84,1.03,6.51,2.7C85.91,17.89,86.94,20.19,86.94,22.73z"/>
	<path class="st3" d="M65.18,29.54c0,3.16-1.62,5.99-4.11,7.65c-1.24,0.84-2.7,1.37-4.29,1.51c-1.55,0.14-3.05-0.13-4.41-0.7
		c-3.02-1.29-5.26-4.17-5.56-7.67c-0.02-0.27-0.03-0.55-0.03-0.81c0-4.72,3.61-8.74,8.41-9.16c0.27-0.02,0.55-0.03,0.81-0.03
		c4.72,0,8.74,3.61,9.16,8.41C65.16,29.01,65.18,29.28,65.18,29.54z"/>
	<path class="st3" d="M41.01,37.21c0,2.56-1.07,5-2.92,6.72c-0.98,0.93-2.16,1.65-3.53,2.08c-1.94,0.61-3.94,0.55-5.72-0.06
		c-2.68-0.91-4.91-3.04-5.82-5.95c-0.29-0.92-0.43-1.86-0.43-2.78c0-3.9,2.51-7.53,6.43-8.76c0.92-0.29,1.86-0.43,2.78-0.43
		c3.9,0,7.53,2.51,8.77,6.43C40.86,35.37,41.01,36.29,41.01,37.21z"/>
</g>
<g class="st0">
	<path class="st4" d="M120.03,126.4v11.4c0,2.16-1.75,3.92-3.92,3.92H39.8c-2.17,0-3.92-1.76-3.92-3.92v-11.4
		c0-2.16,1.75-3.92,3.92-3.92h76.31C118.28,122.48,120.03,124.24,120.03,126.4z"/>
	<path class="st4" d="M121.04,98.8v3.39c0,8.51-4.41,15.99-11.07,20.29H45.93c-6.65-4.29-11.06-11.77-11.06-20.29V98.8
		c0-11.77,8.43-21.57,19.57-23.69c-1.43-3.06-2.21-6.47-2.21-10.07v-3.4c0-10.26,6.41-19.04,15.46-22.52
		c-3.17-2.68-5.17-6.68-5.17-11.16V25.9c0-8.08,6.55-14.63,14.63-14.63h1.62c8.08,0,14.63,6.55,14.63,14.63v2.07
		c0,4.47-2,8.47-5.16,11.16c9.04,3.48,15.45,12.26,15.45,22.52v3.4c0,3.6-0.79,7.01-2.21,10.07
		C112.6,77.23,121.04,87.03,121.04,98.8z"/>
</g>
<g class="st0">
	<path class="st4" d="M87.94,18.33v6.46c0,3.14-2.14,5.77-5.05,6.53c-0.54,0.15-1.11,0.22-1.7,0.22h-6.46
		c-0.59,0-1.16-0.07-1.7-0.22c-2.91-0.76-5.05-3.39-5.05-6.53v-6.46c0-3.73,3.02-6.75,6.75-6.75h6.46
		C84.92,11.58,87.94,14.61,87.94,18.33z"/>
	<path class="st4" d="M104.9,100.94l2.09-2.09c13.14-13.14,13.14-34.43,0-47.57L92.4,36.7c-2.72-2.72-6.02-4.51-9.51-5.37
		c-0.54,0.15-1.11,0.22-1.7,0.22h-6.46c-0.59,0-1.16-0.07-1.7-0.22c-3.48,0.86-6.79,2.66-9.51,5.37L48.93,51.28
		c-13.14,13.14-13.14,34.43,0,47.57l0.75,0.75c-4.53,2.47-7.61,7.28-7.61,12.8v6.64h68.38v-6.64
		C110.45,107.76,108.29,103.63,104.9,100.94z M90.55,66.45c0,1.47-1.2,2.67-2.67,2.67h-6.94v22.51c0,1.47-1.19,2.67-2.67,2.67h-0.66
		c-1.47,0-2.66-1.2-2.66-2.67V69.11h-6.94c-1.47,0-2.67-1.2-2.67-2.67v-1.19c0-1.48,1.2-2.67,2.67-2.67h6.94v-7.38
		c0-1.47,1.19-2.67,2.66-2.67h0.66c1.48,0,2.67,1.2,2.67,2.67v7.38h6.94c1.47,0,2.67,1.19,2.67,2.67V66.45z"/>
	<path class="st4" d="M127.58,122.96v14.52c0,2.17-1.75,3.92-3.92,3.92h-91.4c-2.17,0-3.92-1.75-3.92-3.92v-14.52
		c0-2.16,1.75-3.91,3.92-3.91h91.4C125.83,119.04,127.58,120.8,127.58,122.96z"/>
</g>
<g class="st0">
	<path class="st4" d="M127.44,123.38v14.45c0,2.17-1.75,3.92-3.92,3.92H32.4c-2.16,0-3.92-1.75-3.92-3.92v-14.45
		c0-2.17,1.76-3.92,3.92-3.92h91.12C125.69,119.45,127.44,121.21,127.44,123.38z"/>
	<path class="st4" d="M116.42,44.28c0,0.59-0.02,1.2-0.05,1.79l-0.45,7.86l-11.5,44.58c-0.99,3.84,1.75,7.58,3.68,11.04l5.5,9.9
		H41.72L85.6,57.93c0.94-1.32,0-3.17-1.64-3.17c-2.93,0-4.45,0.5-5.67,1.43c-1.22,0.93-2.13,2.29-3.82,3.99
		c-3.28,3.27-7.15,5.56-12.34,5.56c-4.05,0-8.14-1.04-11.39-3.19l-9.96-11.01l34.74-40.3C102.08,11.24,116.42,25.69,116.42,44.28z"
		/>
</g>
<g class="st0">
	<path class="st4" d="M109.73,111.93v4.58c0,0.19,0,0.38-0.01,0.57H46.2c-0.02-0.19-0.02-0.38-0.02-0.57v-4.58
		c0-3,0.9-5.79,2.47-8.11h58.62C108.83,106.14,109.73,108.93,109.73,111.93z"/>
	<path class="st4" d="M124.07,121v12.94c0,2.16-1.75,3.92-3.92,3.92H35.75c-2.17,0-3.92-1.76-3.92-3.92V121
		c0-2.17,1.75-3.92,3.92-3.92h84.39C122.32,117.07,124.07,118.82,124.07,121z"/>
	<g class="st1">
		<path class="st5" d="M127.58,62.62v26.59c0,8.07-6.55,14.61-14.61,14.61H42.93c-8.06,0-14.6-6.54-14.6-14.61V63.83l1.01-6.53
			l5.83-37.73c0-1.87,1.27-3.38,2.84-3.38h16.54c1.57,0,2.84,1.51,2.84,3.38v28.44h9.43V18.06c0-1.62,1.31-2.93,2.93-2.93h16.38
			c1.61,0,2.92,1.31,2.92,2.93v29.96h9.43v-29.5c0-1.87,1.27-3.39,2.84-3.39h16.54c1.57,0,2.84,1.52,2.84,3.39l5.92,38.98
			C127.25,59.09,127.58,60.81,127.58,62.62z"/>
		<path class="st5" d="M29.34,57.31l-1.01,6.53v-1.22C28.34,60.74,28.69,58.94,29.34,57.31z"/>
	</g>
</g>
<g>
	<path class="st5" d="M77.96,96.36v26.41H39.52c-1.95,0-3.53,1.58-3.53,3.53v0.09c-12.33-4.24-21.19-15.93-21.19-29.7V79.72
		c0-8.16,6.62-14.78,14.78-14.78h16.97c8.02,0,15.34,3.01,20.89,7.96c0.98,1.34,2.09,2.49,3.31,3.41c0,0,0.01,0,0.01,0.01
		C75.26,81.77,77.96,88.75,77.96,96.36z"/>
	<path class="st5" d="M141.12,79.72v16.74c0,13.81-8.85,25.56-21.18,29.87v-0.03c0-1.95-1.58-3.53-3.53-3.53H77.96V96.36
		c0.06-7.75,2.9-14.85,7.58-20.33c0.01,0,0.02-0.01,0.03-0.02c0.72-0.59,1.41-1.27,2.06-2.03c0.21-0.25,0.42-0.49,0.61-0.75
		c0-0.01,0.01-0.02,0.01-0.02c5.63-5.14,13.12-8.28,21.35-8.28h16.74C134.51,64.94,141.12,71.56,141.12,79.72z"/>
	<path class="st5" d="M93.08,57.72c0,6.12-1.85,11.64-4.83,15.51c0,0-0.01,0.01-0.01,0.02c-0.2,0.25-0.4,0.5-0.61,0.75
		c-0.65,0.76-1.34,1.44-2.06,2.03c-0.02,0.01-0.03,0.02-0.03,0.02c-2.23,1.81-4.81,2.85-7.58,2.85c-2.61,0-5.06-0.93-7.2-2.56
		c0-0.01-0.01-0.01-0.01-0.01c-1.22-0.93-2.34-2.07-3.31-3.41c-2.84-3.85-4.6-9.23-4.6-15.19c0-10.48,5.45-19.19,12.59-20.87V25.3
		h-6.18c-1.07,0-1.93-0.86-1.93-1.93v-1.65c0-1.07,0.86-1.93,1.93-1.93h6.18v-6.57c0-1.06,0.87-1.93,1.93-1.93h1.21
		c1.06,0,1.92,0.87,1.92,1.93v6.57h6.19c1.06,0,1.93,0.86,1.93,1.93v1.65c0,1.07-0.87,1.93-1.93,1.93h-6.19v11.54
		C87.63,38.53,93.08,47.23,93.08,57.72z"/>
	<path class="st5" d="M119.93,126.3v11.85c0,1.95-1.58,3.53-3.53,3.53H39.52c-1.95,0-3.53-1.59-3.53-3.53V126.3
		c0-1.96,1.59-3.53,3.53-3.53h76.88C118.36,122.77,119.93,124.34,119.93,126.3z"/>
</g>
<g class="st0">
	<path class="st3" d="M240.47,94.5v29.34h-42.7c-2.17,0-3.93,1.76-3.93,3.93v0.1c-13.7-4.71-23.55-17.7-23.55-33V76.01
		c0-9.07,7.35-16.41,16.42-16.41h18.86c8.91,0,17.04,3.33,23.21,8.83c1.09,1.49,2.32,2.77,3.68,3.8c0,0,0.01,0,0.01,0.01
		C237.47,78.29,240.47,86.04,240.47,94.5z"/>
	<path class="st3" d="M310.65,76.01v18.6c0,15.34-9.83,28.41-23.54,33.2v-0.05c0-2.17-1.76-3.93-3.93-3.93h-42.71V94.5
		c0.07-8.62,3.23-16.5,8.42-22.58c0.01,0,0.02-0.01,0.04-0.02c0.8-0.66,1.57-1.42,2.29-2.26c0.24-0.27,0.46-0.55,0.68-0.83
		c0-0.01,0.01-0.02,0.01-0.02c6.26-5.71,14.58-9.19,23.73-9.19h18.6C303.31,59.6,310.65,66.94,310.65,76.01z"/>
	<path class="st3" d="M257.28,51.56c0,6.81-2.06,12.93-5.37,17.23c0,0-0.01,0.01-0.01,0.02c-0.22,0.28-0.44,0.56-0.68,0.83
		c-0.73,0.84-1.49,1.59-2.29,2.26c-0.02,0.01-0.03,0.02-0.04,0.02c-2.47,2.02-5.34,3.16-8.42,3.16c-2.9,0-5.62-1.03-8-2.83
		c0-0.01-0.01-0.01-0.01-0.01c-1.36-1.03-2.6-2.31-3.68-3.8c-3.15-4.28-5.11-10.25-5.11-16.87c0-11.64,6.06-21.32,13.99-23.19V15.56
		h-6.87c-1.19,0-2.14-0.96-2.14-2.14v-1.84c0-1.18,0.95-2.14,2.14-2.14h6.87V2.14c0-1.18,0.96-2.13,2.14-2.13h1.35
		c1.18,0,2.13,0.95,2.13,2.13v7.29h6.88c1.18,0,2.14,0.96,2.14,2.14v1.84c0,1.18-0.96,2.14-2.14,2.14h-6.88v12.82
		C251.22,30.24,257.28,39.92,257.28,51.56z"/>
	<path class="st3" d="M287.11,127.77v13.17c0,2.16-1.75,3.92-3.92,3.92h-85.42c-2.16,0-3.92-1.76-3.92-3.92v-13.17
		c0-2.17,1.76-3.92,3.92-3.92h85.42C285.36,123.84,287.11,125.59,287.11,127.77z"/>
</g>
<g class="st0">
	<path class="st4" d="M240.47,94.5v29.34h-42.7c-2.17,0-3.93,1.76-3.93,3.93v0.1c-13.7-4.71-23.55-17.7-23.55-33V76.02
		c0-9.07,7.35-16.42,16.42-16.42h18.86c8.91,0,17.04,3.34,23.21,8.84c1.09,1.49,2.32,2.77,3.68,3.79c0,0,0.01,0,0.01,0.01
		C237.47,78.29,240.47,86.05,240.47,94.5z"/>
	<path class="st4" d="M310.65,76.02v18.6c0,15.34-9.83,28.4-23.54,33.19v-0.04c0-2.17-1.76-3.93-3.93-3.93h-42.71V94.5
		c0.07-8.62,3.23-16.5,8.42-22.58c0.01,0,0.02-0.01,0.04-0.02c0.8-0.66,1.57-1.42,2.29-2.26c0.24-0.27,0.46-0.55,0.68-0.83
		c0-0.01,0.01-0.02,0.01-0.02c6.26-5.71,14.58-9.2,23.73-9.2h18.6C303.31,59.6,310.65,66.95,310.65,76.02z"/>
	<path class="st4" d="M257.28,51.57c0,6.8-2.06,12.93-5.37,17.23c0,0-0.01,0.01-0.01,0.02c-0.22,0.28-0.44,0.56-0.68,0.83
		c-0.73,0.84-1.49,1.59-2.29,2.26c-0.02,0.01-0.03,0.02-0.04,0.02c-2.47,2.01-5.34,3.16-8.42,3.16c-2.9,0-5.62-1.03-8-2.84
		c0-0.01-0.01-0.01-0.01-0.01c-1.36-1.03-2.6-2.3-3.68-3.79c-3.15-4.28-5.11-10.26-5.11-16.87c0-11.65,6.06-21.32,13.99-23.19V15.55
		h-6.87c-1.19,0-2.14-0.95-2.14-2.14v-1.83c0-1.19,0.95-2.14,2.14-2.14h6.87V2.14c0-1.18,0.96-2.14,2.14-2.14h1.35
		c1.18,0,2.13,0.96,2.13,2.14v7.29h6.88c1.18,0,2.14,0.95,2.14,2.14v1.83c0,1.19-0.96,2.14-2.14,2.14h-6.88v12.83
		C251.22,30.25,257.28,39.92,257.28,51.57z"/>
	<path class="st4" d="M287.11,127.77v13.17c0,2.16-1.75,3.92-3.92,3.92h-85.42c-2.16,0-3.92-1.76-3.92-3.92v-13.17
		c0-2.17,1.76-3.92,3.92-3.92h85.42C285.36,123.85,287.11,125.6,287.11,127.77z"/>
</g>
<g class="st0">
	<path class="st4" d="M123.74,122.75v12.79c0,2.17-1.75,3.92-3.92,3.92H36.1c-2.17,0-3.92-1.75-3.92-3.92v-12.79
		c0-2.16,1.75-3.91,3.92-3.91h83.72C121.99,118.84,123.74,120.59,123.74,122.75z"/>
	<path class="st4" d="M136.53,83.59c0,10.14-4.11,19.32-10.76,25.95c-4.3,4.31-9.68,7.56-15.69,9.3H45.85
		c-15.28-4.44-26.46-18.53-26.46-35.25c0-5.15,2.09-9.83,5.47-13.21c2.17-2.17,4.89-3.82,7.92-4.7L28.95,46.4
		c-0.05-0.16-0.08-0.3-0.1-0.46c1.78,0.61,3.78,0.67,5.72,0.06c1.36-0.43,2.55-1.14,3.53-2.08l7.61,20.99h6.84L52.36,38
		c1.35,0.58,2.85,0.84,4.41,0.7c1.6-0.14,3.05-0.67,4.29-1.51l4.54,27.72h4.82l3.23-33.92c1.23,0.6,2.61,0.94,4.08,0.94
		c1.42,0,2.76-0.31,3.96-0.89l2.66,33.86h5.27l5.14-27.7c1.22,0.82,2.63,1.35,4.19,1.51c0.31,0.03,0.63,0.05,0.94,0.05
		c1.04,0,2.05-0.18,2.99-0.51l0.54,26.66h6.56l7.12-21.04c1.01,0.93,2.24,1.66,3.63,2.07c0.87,0.25,1.74,0.38,2.6,0.38
		c1.08,0,2.13-0.19,3.12-0.56c-0.02,0.16-0.06,0.31-0.11,0.47l-1.74,19.94C131.57,68.88,136.53,75.66,136.53,83.59z"/>
	<path class="st4" d="M132.53,37.1c0,0.86-0.13,1.73-0.38,2.6c-0.86,2.93-3.04,5.1-5.71,6.06c-0.99,0.37-2.04,0.56-3.12,0.56
		c-0.86,0-1.73-0.13-2.6-0.38c-1.4-0.41-2.62-1.13-3.63-2.07c-2.5-2.28-3.63-5.88-2.6-9.36c1.19-4.01,4.85-6.61,8.83-6.61
		c0.86,0,1.73,0.13,2.6,0.38C129.92,29.46,132.53,33.12,132.53,37.1z"/>
	<path class="st4" d="M109.08,29.54c0,0.31-0.02,0.63-0.05,0.94c-0.38,3.68-2.86,6.63-6.15,7.77c-0.94,0.34-1.95,0.51-2.99,0.51
		c-0.31,0-0.63-0.02-0.94-0.05c-1.55-0.16-2.97-0.69-4.19-1.51c-2.74-1.83-4.4-5.07-4.04-8.57c0.48-4.74,4.48-8.28,9.14-8.28
		c0.31,0,0.63,0.02,0.94,0.05C105.55,20.88,109.08,24.89,109.08,29.54z"/>
	<path class="st4" d="M86.94,22.73c0,2.54-1.03,4.84-2.7,6.51c-0.73,0.73-1.6,1.35-2.55,1.8c-1.2,0.58-2.54,0.89-3.96,0.89
		c-1.47,0-2.85-0.35-4.08-0.94c-3.03-1.51-5.12-4.64-5.12-8.26c0-2.54,1.03-4.85,2.7-6.52c1.66-1.67,3.96-2.7,6.51-2.7
		c2.54,0,4.84,1.03,6.51,2.7C85.91,17.89,86.94,20.19,86.94,22.73z"/>
	<path class="st4" d="M65.18,29.54c0,3.16-1.62,5.99-4.11,7.65c-1.24,0.84-2.7,1.37-4.29,1.51c-1.55,0.14-3.05-0.13-4.41-0.7
		c-3.02-1.29-5.26-4.17-5.56-7.67c-0.02-0.27-0.03-0.55-0.03-0.81c0-4.72,3.61-8.74,8.41-9.16c0.27-0.02,0.55-0.03,0.81-0.03
		c4.72,0,8.74,3.61,9.16,8.41C65.16,29.01,65.18,29.28,65.18,29.54z"/>
	<path class="st4" d="M41.01,37.21c0,2.56-1.07,5-2.92,6.72c-0.98,0.93-2.16,1.65-3.53,2.08c-1.94,0.61-3.94,0.55-5.72-0.06
		c-2.68-0.91-4.91-3.04-5.82-5.95c-0.29-0.92-0.43-1.86-0.43-2.78c0-3.9,2.51-7.53,6.43-8.76c0.92-0.29,1.86-0.43,2.78-0.43
		c3.9,0,7.53,2.51,8.77,6.43C40.86,35.37,41.01,36.29,41.01,37.21z"/>
</g>
</svg>
