<?xml version="1.0" encoding="utf-8"?>
<!-- Generator: Adobe Illustrator 24.0.1, SVG Export Plug-In . SVG Version: 6.00 Build 0)  -->
<svg version="1.1" id="Warstwa_1" xmlns="http://www.w3.org/2000/svg" xmlns:xlink="http://www.w3.org/1999/xlink" x="0px" y="0px"
	 viewBox="0 0 155.91 155.91" style="enable-background:new 0 0 155.91 155.91;" xml:space="preserve">
<style type="text/css">
	.st0{display:none;}
	.st1{display:inline;}
	.st2{fill:#FBF4D7;stroke:#424039;stroke-width:3;stroke-miterlimit:10;}
	.st3{display:inline;fill:#FBF4D7;stroke:#424039;stroke-width:3;stroke-miterlimit:10;}
	.st4{display:inline;fill:#AB6D30;stroke:#DBC7B4;stroke-width:3;stroke-miterlimit:10;}
	.st5{fill:#AB6D30;stroke:#DBC7B4;stroke-width:3;stroke-miterlimit:10;}
</style>
<g class="st0">
	<g class="st1">
		<path class="st2" d="M120.03,126.43v11.4c0,2.16-1.75,3.92-3.92,3.92H39.8c-2.17,0-3.92-1.76-3.92-3.92v-11.4
			c0-2.16,1.75-3.92,3.92-3.92h76.31C118.28,122.51,120.03,124.27,120.03,126.43z"/>
		<path class="st2" d="M121.04,100.18v3.2c0,8.03-4.41,15.09-11.07,19.14H45.93c-6.65-4.05-11.06-11.11-11.06-19.14v-3.2
			c0-11.11,8.43-20.34,19.57-22.34c-1.43-2.89-2.21-6.11-2.21-9.5v-3.21c0-9.68,6.41-17.96,15.46-21.24
			c-3.17-2.52-5.17-6.31-5.17-10.52v-1.95c0-7.62,6.55-13.8,14.63-13.8h1.62c8.08,0,14.63,6.18,14.63,13.8v1.95
			c0,4.22-2,7.99-5.16,10.52c9.04,3.29,15.45,11.56,15.45,21.24v3.21c0,3.4-0.79,6.61-2.21,9.5
			C112.6,79.82,121.04,89.07,121.04,100.18z"/>
	</g>
</g>
<g class="st0">
	<g class="st1">
		<path class="st2" d="M87.94,18.68v6.46c0,3.14-2.14,5.77-5.05,6.53c-0.54,0.15-1.11,0.22-1.7,0.22h-6.46
			c-0.59,0-1.16-0.07-1.7-0.22c-2.91-0.76-5.05-3.39-5.05-6.53v-6.46c0-3.73,3.02-6.75,6.75-6.75h6.46
			C84.92,11.93,87.94,14.95,87.94,18.68z"/>
		<path class="st2" d="M104.9,101.29l2.09-2.09c13.14-13.14,13.14-34.43,0-47.57L92.4,37.04c-2.72-2.72-6.02-4.51-9.51-5.37
			c-0.54,0.15-1.11,0.22-1.7,0.22h-6.46c-0.59,0-1.16-0.07-1.7-0.22c-3.48,0.86-6.79,2.66-9.51,5.37L48.93,51.63
			c-13.14,13.14-13.14,34.43,0,47.57l0.75,0.75c-4.53,2.47-7.61,7.28-7.61,12.8v6.64h68.38v-6.64
			C110.45,108.11,108.29,103.97,104.9,101.29z M90.55,66.79c0,1.47-1.2,2.67-2.67,2.67h-6.94v22.51c0,1.47-1.19,2.67-2.67,2.67
			h-0.66c-1.47,0-2.66-1.2-2.66-2.67V69.46h-6.94c-1.47,0-2.67-1.2-2.67-2.67v-1.19c0-1.48,1.2-2.67,2.67-2.67h6.94v-7.38
			c0-1.47,1.19-2.67,2.66-2.67h0.66c1.48,0,2.67,1.2,2.67,2.67v7.38h6.94c1.47,0,2.67,1.19,2.67,2.67V66.79z"/>
		<path class="st2" d="M127.58,123.31v14.52c0,2.17-1.75,3.92-3.92,3.92h-91.4c-2.17,0-3.92-1.75-3.92-3.92v-14.52
			c0-2.16,1.75-3.91,3.92-3.91h91.4C125.83,119.39,127.58,121.14,127.58,123.31z"/>
	</g>
</g>
<g class="st0">
	<g class="st1">
		<path class="st2" d="M127.44,123.38v14.45c0,2.17-1.75,3.92-3.92,3.92H32.4c-2.16,0-3.92-1.75-3.92-3.92v-14.45
			c0-2.17,1.76-3.92,3.92-3.92h91.12C125.69,119.45,127.44,121.21,127.44,123.38z"/>
		<path class="st2" d="M117.83,50.65c0,0.59-0.02,1.2-0.05,1.79l-0.45,7.86l-11.5,44.58c-0.99,3.84,1.75,7.58,3.68,11.04l4.1,3.53
			H41.72L87.01,64.3c0.94-1.32,0-3.17-1.64-3.17c-2.93,0-4.45,0.5-5.67,1.43c-1.22,0.93-2.13,2.29-3.82,3.99
			c-3.28,3.27-7.15,5.56-12.34,5.56c-4.05,0-8.14-1.04-11.39-3.19L42.2,57.9l34.74-40.3C103.48,17.61,117.83,32.06,117.83,50.65z"/>
	</g>
</g>
<g class="st0">
	<g class="st1">
		<path class="st2" d="M109.73,115.82v4.58c0,0.19,0,0.38-0.01,0.57H46.2c-0.02-0.19-0.02-0.38-0.02-0.57v-4.58
			c0-3,0.9-5.79,2.47-8.11h58.62C108.83,110.03,109.73,112.82,109.73,115.82z"/>
		<path class="st2" d="M127.63,124.89v12.94c0,2.16-1.89,3.92-4.22,3.92H32.62c-2.34,0-4.22-1.76-4.22-3.92v-12.94
			c0-2.17,1.89-3.92,4.22-3.92h90.79C125.74,120.97,127.63,122.72,127.63,124.89z"/>
		<g>
			<path class="st2" d="M127.58,66.51V93.1c0,8.07-6.55,14.61-14.61,14.61H42.93c-8.06,0-14.6-6.54-14.6-14.61V67.73l1.01-6.53
				l6.18-38.8c0-1.87,1.27-3.38,2.84-3.38h16.54c1.57,0,2.84,1.51,2.84,3.38L57.4,51.91h9.43V21.95c0-1.62,1.31-2.93,2.93-2.93
				h16.38c1.61,0,2.92,1.31,2.92,2.93v29.96h9.43v-29.5c0-1.87,1.27-3.39,2.84-3.39h16.54c1.57,0,2.84,1.52,2.84,3.39l5.92,38.98
				C127.25,62.98,127.58,64.71,127.58,66.51z"/>
			<path class="st2" d="M29.34,61.2l-1.01,6.53v-1.22C28.34,64.63,28.69,62.84,29.34,61.2z"/>
		</g>
	</g>
</g>
<g class="st0">
	<path class="st3" d="M77.96,96.43v26.41H39.52c-1.95,0-3.53,1.58-3.53,3.53v0.09c-12.33-4.24-21.19-15.93-21.19-29.7V79.79
		c0-8.16,6.62-14.77,14.78-14.77h16.97c8.02,0,15.34,3,20.89,7.95c0.98,1.34,2.09,2.5,3.31,3.42c0,0,0.01,0,0.01,0.01
		C75.26,81.84,77.96,88.82,77.96,96.43z"/>
	<path class="st3" d="M141.12,79.79v16.74c0,13.81-8.85,25.57-21.18,29.88v-0.04c0-1.95-1.58-3.53-3.53-3.53H77.96V96.43
		c0.06-7.75,2.9-14.85,7.58-20.32c0.01,0,0.02-0.01,0.03-0.02c0.72-0.59,1.41-1.27,2.06-2.03c0.21-0.25,0.42-0.49,0.61-0.75
		c0-0.01,0.01-0.02,0.01-0.02c5.63-5.14,13.12-8.27,21.35-8.27h16.74C134.51,65.02,141.12,71.63,141.12,79.79z"/>
	<path class="st3" d="M93.08,57.78c0,6.13-1.85,11.64-4.83,15.51c0,0-0.01,0.01-0.01,0.02c-0.2,0.25-0.4,0.5-0.61,0.75
		c-0.65,0.76-1.34,1.44-2.06,2.03c-0.02,0.01-0.03,0.02-0.03,0.02c-2.23,1.82-4.81,2.85-7.58,2.85c-2.61,0-5.06-0.93-7.2-2.55
		c0-0.01-0.01-0.01-0.01-0.01c-1.22-0.93-2.34-2.08-3.31-3.42c-2.84-3.85-4.6-9.22-4.6-15.19c0-10.47,5.45-19.19,12.59-20.87V25.38
		h-6.18c-1.07,0-1.93-0.87-1.93-1.93v-1.66c0-1.06,0.86-1.93,1.93-1.93h6.18V13.3c0-1.06,0.87-1.92,1.93-1.92h1.21
		c1.06,0,1.92,0.86,1.92,1.92v6.57h6.19c1.06,0,1.93,0.87,1.93,1.93v1.66c0,1.06-0.87,1.93-1.93,1.93h-6.19v11.53
		C87.63,38.59,93.08,47.31,93.08,57.78z"/>
	<path class="st3" d="M119.93,126.37v11.85c0,1.95-1.58,3.53-3.53,3.53H39.52c-1.95,0-3.53-1.59-3.53-3.53v-11.85
		c0-1.96,1.59-3.53,3.53-3.53h76.88C118.36,122.84,119.93,124.41,119.93,126.37z"/>
</g>
<g class="st0">
	<path class="st3" d="M123.74,125.04v12.79c0,2.17-1.75,3.92-3.92,3.92H36.1c-2.17,0-3.92-1.75-3.92-3.92v-12.79
		c0-2.16,1.75-3.91,3.92-3.91h83.72C121.99,121.12,123.74,122.88,123.74,125.04z"/>
	<path class="st3" d="M136.53,85.87c0,10.14-4.11,19.32-10.76,25.95c-4.3,4.31-9.68,7.56-15.69,9.3H45.85
		c-15.28-4.44-26.46-18.53-26.46-35.25c0-5.15,2.09-9.83,5.47-13.21c2.17-2.17,4.89-3.82,7.92-4.7l-3.83-19.28
		c-0.05-0.16-0.08-0.3-0.1-0.46c1.78,0.61,3.78,0.67,5.72,0.06c1.36-0.43,2.55-1.14,3.53-2.08l7.61,20.99h6.84l-0.18-26.91
		c1.35,0.58,2.85,0.84,4.41,0.7c1.6-0.14,3.05-0.67,4.29-1.51l4.54,27.72h4.82l3.23-33.92c1.23,0.6,2.61,0.94,4.08,0.94
		c1.42,0,2.76-0.31,3.96-0.89l2.66,33.86h5.27l5.14-27.7c1.22,0.82,2.63,1.35,4.19,1.51c0.31,0.03,0.63,0.05,0.94,0.05
		c1.04,0,2.05-0.18,2.99-0.51l0.54,26.66h6.56l7.12-21.04c1.01,0.93,2.24,1.66,3.63,2.07c0.87,0.25,1.74,0.38,2.6,0.38
		c1.08,0,2.13-0.19,3.12-0.56c-0.02,0.16-0.06,0.31-0.11,0.47l-1.74,19.94C131.57,71.16,136.53,77.94,136.53,85.87z"/>
	<path class="st3" d="M132.53,39.38c0,0.86-0.13,1.73-0.38,2.6c-0.86,2.93-3.04,5.1-5.71,6.06c-0.99,0.37-2.04,0.56-3.12,0.56
		c-0.86,0-1.73-0.13-2.6-0.38c-1.4-0.41-2.62-1.13-3.63-2.07c-2.5-2.28-3.63-5.88-2.6-9.36c1.19-4.01,4.85-6.61,8.83-6.61
		c0.86,0,1.73,0.13,2.6,0.38C129.92,31.74,132.53,35.41,132.53,39.38z"/>
	<path class="st3" d="M109.08,31.83c0,0.31-0.02,0.63-0.05,0.94c-0.38,3.68-2.86,6.63-6.15,7.77c-0.94,0.34-1.95,0.51-2.99,0.51
		c-0.31,0-0.63-0.02-0.94-0.05c-1.55-0.16-2.97-0.69-4.19-1.51c-2.74-1.83-4.4-5.07-4.04-8.57c0.48-4.74,4.48-8.28,9.14-8.28
		c0.31,0,0.63,0.02,0.94,0.05C105.55,23.16,109.08,27.17,109.08,31.83z"/>
	<path class="st3" d="M86.94,25.02c0,2.54-1.03,4.84-2.7,6.51c-0.73,0.73-1.6,1.35-2.55,1.8c-1.2,0.58-2.54,0.89-3.96,0.89
		c-1.47,0-2.85-0.35-4.08-0.94c-3.03-1.51-5.12-4.64-5.12-8.26c0-2.54,1.03-4.85,2.7-6.52c1.66-1.67,3.96-2.7,6.51-2.7
		c2.54,0,4.84,1.03,6.51,2.7C85.91,20.17,86.94,22.48,86.94,25.02z"/>
	<path class="st3" d="M65.18,31.83c0,3.16-1.62,5.99-4.11,7.65c-1.24,0.84-2.7,1.37-4.29,1.51c-1.55,0.14-3.05-0.13-4.41-0.7
		c-3.02-1.29-5.26-4.17-5.56-7.67c-0.02-0.27-0.03-0.55-0.03-0.81c0-4.72,3.61-8.74,8.41-9.16c0.27-0.02,0.55-0.03,0.81-0.03
		c4.72,0,8.74,3.61,9.16,8.41C65.16,31.29,65.18,31.56,65.18,31.83z"/>
	<path class="st3" d="M41.01,39.49c0,2.56-1.07,5-2.92,6.72c-0.98,0.93-2.16,1.65-3.53,2.08c-1.94,0.61-3.94,0.55-5.72-0.06
		c-2.68-0.91-4.91-3.04-5.82-5.95c-0.29-0.92-0.43-1.86-0.43-2.78c0-3.9,2.51-7.53,6.43-8.76c0.92-0.29,1.86-0.43,2.78-0.43
		c3.9,0,7.53,2.51,8.77,6.43C40.86,37.65,41.01,38.57,41.01,39.49z"/>
</g>
<g class="st0">
	<path class="st4" d="M120.03,126.43v11.4c0,2.16-1.75,3.92-3.92,3.92H39.8c-2.17,0-3.92-1.76-3.92-3.92v-11.4
		c0-2.16,1.75-3.92,3.92-3.92h76.31C118.28,122.51,120.03,124.27,120.03,126.43z"/>
	<path class="st4" d="M121.04,100.18v3.2c0,8.03-4.41,15.09-11.07,19.14H45.93c-6.65-4.05-11.06-11.11-11.06-19.14v-3.2
		c0-11.11,8.43-20.34,19.57-22.34c-1.43-2.89-2.21-6.11-2.21-9.5v-3.21c0-9.68,6.41-17.96,15.46-21.24
		c-3.17-2.52-5.17-6.31-5.17-10.52v-1.95c0-7.62,6.55-13.8,14.63-13.8h1.62c8.08,0,14.63,6.18,14.63,13.8v1.95
		c0,4.22-2,7.99-5.16,10.52c9.04,3.29,15.45,11.56,15.45,21.24v3.21c0,3.4-0.79,6.61-2.21,9.5
		C112.6,79.82,121.04,89.07,121.04,100.18z"/>
</g>
<g class="st0">
	<path class="st4" d="M87.94,18.68v6.46c0,3.14-2.14,5.77-5.05,6.53c-0.54,0.15-1.11,0.22-1.7,0.22h-6.46
		c-0.59,0-1.16-0.07-1.7-0.22c-2.91-0.76-5.05-3.39-5.05-6.53v-6.46c0-3.73,3.02-6.75,6.75-6.75h6.46
		C84.92,11.93,87.94,14.95,87.94,18.68z"/>
	<path class="st4" d="M104.9,101.29l2.09-2.09c13.14-13.14,13.14-34.43,0-47.57L92.4,37.04c-2.72-2.72-6.02-4.51-9.51-5.37
		c-0.54,0.15-1.11,0.22-1.7,0.22h-6.46c-0.59,0-1.16-0.07-1.7-0.22c-3.48,0.86-6.79,2.66-9.51,5.37L48.93,51.63
		c-13.14,13.14-13.14,34.43,0,47.57l0.75,0.75c-4.53,2.47-7.61,7.28-7.61,12.8v6.64h68.38v-6.64
		C110.45,108.11,108.29,103.97,104.9,101.29z M90.55,66.79c0,1.47-1.2,2.67-2.67,2.67h-6.94v22.51c0,1.47-1.19,2.67-2.67,2.67h-0.66
		c-1.47,0-2.66-1.2-2.66-2.67V69.46h-6.94c-1.47,0-2.67-1.2-2.67-2.67v-1.19c0-1.48,1.2-2.67,2.67-2.67h6.94v-7.38
		c0-1.47,1.19-2.67,2.66-2.67h0.66c1.48,0,2.67,1.2,2.67,2.67v7.38h6.94c1.47,0,2.67,1.19,2.67,2.67V66.79z"/>
	<path class="st4" d="M127.58,123.31v14.52c0,2.17-1.75,3.92-3.92,3.92h-91.4c-2.17,0-3.92-1.75-3.92-3.92v-14.52
		c0-2.16,1.75-3.91,3.92-3.91h91.4C125.83,119.39,127.58,121.14,127.58,123.31z"/>
</g>
<g class="st0">
	<path class="st4" d="M127.44,123.38v14.45c0,2.17-1.75,3.92-3.92,3.92H32.4c-2.16,0-3.92-1.75-3.92-3.92v-14.45
		c0-2.17,1.76-3.92,3.92-3.92h91.12C125.69,119.45,127.44,121.21,127.44,123.38z"/>
	<path class="st4" d="M117.83,50.65c0,0.59-0.02,1.2-0.05,1.79l-0.45,7.86l-11.5,44.58c-0.99,3.84,1.75,7.58,3.68,11.04l4.1,3.53
		H41.72L87.01,64.3c0.94-1.32,0-3.17-1.64-3.17c-2.93,0-4.45,0.5-5.67,1.43c-1.22,0.93-2.13,2.29-3.82,3.99
		c-3.28,3.27-7.15,5.56-12.34,5.56c-4.05,0-8.14-1.04-11.39-3.19L42.2,57.9l34.74-40.3C103.48,17.61,117.83,32.06,117.83,50.65z"/>
</g>
<g class="st0">
	<path class="st4" d="M109.73,115.82v4.58c0,0.19,0,0.38-0.01,0.57H46.2c-0.02-0.19-0.02-0.38-0.02-0.57v-4.58
		c0-3,0.9-5.79,2.47-8.11h58.62C108.83,110.03,109.73,112.82,109.73,115.82z"/>
	<path class="st4" d="M127.63,124.89v12.94c0,2.16-1.89,3.92-4.22,3.92H32.62c-2.34,0-4.22-1.76-4.22-3.92v-12.94
		c0-2.17,1.89-3.92,4.22-3.92h90.79C125.74,120.97,127.63,122.72,127.63,124.89z"/>
	<g class="st1">
		<path class="st5" d="M127.58,66.51V93.1c0,8.07-6.55,14.61-14.61,14.61H42.93c-8.06,0-14.6-6.54-14.6-14.61V67.73l1.01-6.53
			l6.18-38.8c0-1.87,1.27-3.38,2.84-3.38h16.54c1.57,0,2.84,1.51,2.84,3.38L57.4,51.91h9.43V21.95c0-1.62,1.31-2.93,2.93-2.93h16.38
			c1.61,0,2.92,1.31,2.92,2.93v29.96h9.43v-29.5c0-1.87,1.27-3.39,2.84-3.39h16.54c1.57,0,2.84,1.52,2.84,3.39l5.92,38.98
			C127.25,62.98,127.58,64.71,127.58,66.51z"/>
		<path class="st5" d="M29.34,61.2l-1.01,6.53v-1.22C28.34,64.63,28.69,62.84,29.34,61.2z"/>
	</g>
</g>
<g>
	<path class="st5" d="M77.96,96.43v26.41H39.52c-1.95,0-3.53,1.58-3.53,3.53v0.09c-12.33-4.24-21.19-15.93-21.19-29.7V79.79
		c0-8.16,6.62-14.78,14.78-14.78h16.97c8.02,0,15.34,3.01,20.89,7.96c0.98,1.34,2.09,2.49,3.31,3.41c0,0,0.01,0,0.01,0.01
		C75.26,81.84,77.96,88.82,77.96,96.43z"/>
	<path class="st5" d="M141.12,79.79v16.74c0,13.81-8.85,25.56-21.18,29.87v-0.03c0-1.95-1.58-3.53-3.53-3.53H77.96V96.43
		c0.06-7.75,2.9-14.85,7.58-20.33c0.01,0,0.02-0.01,0.03-0.02c0.72-0.59,1.41-1.27,2.06-2.03c0.21-0.25,0.42-0.49,0.61-0.75
		c0-0.01,0.01-0.02,0.01-0.02c5.63-5.14,13.12-8.28,21.35-8.28h16.74C134.51,65.01,141.12,71.63,141.12,79.79z"/>
	<path class="st5" d="M93.08,57.78c0,6.12-1.85,11.64-4.83,15.51c0,0-0.01,0.01-0.01,0.02c-0.2,0.25-0.4,0.5-0.61,0.75
		c-0.65,0.76-1.34,1.44-2.06,2.03c-0.02,0.01-0.03,0.02-0.03,0.02c-2.23,1.81-4.81,2.85-7.58,2.85c-2.61,0-5.06-0.93-7.2-2.56
		c0-0.01-0.01-0.01-0.01-0.01c-1.22-0.93-2.34-2.07-3.31-3.41c-2.84-3.85-4.6-9.23-4.6-15.19c0-10.48,5.45-19.19,12.59-20.87V25.37
		h-6.18c-1.07,0-1.93-0.86-1.93-1.93V21.8c0-1.07,0.86-1.93,1.93-1.93h6.18V13.3c0-1.06,0.87-1.93,1.93-1.93h1.21
		c1.06,0,1.92,0.87,1.92,1.93v6.57h6.19c1.06,0,1.93,0.86,1.93,1.93v1.65c0,1.07-0.87,1.93-1.93,1.93h-6.19v11.54
		C87.63,38.6,93.08,47.3,93.08,57.78z"/>
	<path class="st5" d="M119.93,126.37v11.85c0,1.95-1.58,3.53-3.53,3.53H39.52c-1.95,0-3.53-1.59-3.53-3.53v-11.85
		c0-1.96,1.59-3.53,3.53-3.53h76.88C118.36,122.84,119.93,124.41,119.93,126.37z"/>
</g>
<g class="st0">
	<path class="st4" d="M123.74,125.04v12.79c0,2.17-1.75,3.92-3.92,3.92H36.1c-2.17,0-3.92-1.75-3.92-3.92v-12.79
		c0-2.16,1.75-3.91,3.92-3.91h83.72C121.99,121.12,123.74,122.88,123.74,125.04z"/>
	<path class="st4" d="M136.53,85.87c0,10.14-4.11,19.32-10.76,25.95c-4.3,4.31-9.68,7.56-15.69,9.3H45.85
		c-15.28-4.44-26.46-18.53-26.46-35.25c0-5.15,2.09-9.83,5.47-13.21c2.17-2.17,4.89-3.82,7.92-4.7l-3.83-19.28
		c-0.05-0.16-0.08-0.3-0.1-0.46c1.78,0.61,3.78,0.67,5.72,0.06c1.36-0.43,2.55-1.14,3.53-2.08l7.61,20.99h6.84l-0.18-26.91
		c1.35,0.58,2.85,0.84,4.41,0.7c1.6-0.14,3.05-0.67,4.29-1.51l4.54,27.72h4.82l3.23-33.92c1.23,0.6,2.61,0.94,4.08,0.94
		c1.42,0,2.76-0.31,3.96-0.89l2.66,33.86h5.27l5.14-27.7c1.22,0.82,2.63,1.35,4.19,1.51c0.31,0.03,0.63,0.05,0.94,0.05
		c1.04,0,2.05-0.18,2.99-0.51l0.54,26.66h6.56l7.12-21.04c1.01,0.93,2.24,1.66,3.63,2.07c0.87,0.25,1.74,0.38,2.6,0.38
		c1.08,0,2.13-0.19,3.12-0.56c-0.02,0.16-0.06,0.31-0.11,0.47l-1.74,19.94C131.57,71.16,136.53,77.94,136.53,85.87z"/>
	<path class="st4" d="M132.53,39.38c0,0.86-0.13,1.73-0.38,2.6c-0.86,2.93-3.04,5.1-5.71,6.06c-0.99,0.37-2.04,0.56-3.12,0.56
		c-0.86,0-1.73-0.13-2.6-0.38c-1.4-0.41-2.62-1.13-3.63-2.07c-2.5-2.28-3.63-5.88-2.6-9.36c1.19-4.01,4.85-6.61,8.83-6.61
		c0.86,0,1.73,0.13,2.6,0.38C129.92,31.74,132.53,35.41,132.53,39.38z"/>
	<path class="st4" d="M109.08,31.83c0,0.31-0.02,0.63-0.05,0.94c-0.38,3.68-2.86,6.63-6.15,7.77c-0.94,0.34-1.95,0.51-2.99,0.51
		c-0.31,0-0.63-0.02-0.94-0.05c-1.55-0.16-2.97-0.69-4.19-1.51c-2.74-1.83-4.4-5.07-4.04-8.57c0.48-4.74,4.48-8.28,9.14-8.28
		c0.31,0,0.63,0.02,0.94,0.05C105.55,23.16,109.08,27.17,109.08,31.83z"/>
	<path class="st4" d="M86.94,25.02c0,2.54-1.03,4.84-2.7,6.51c-0.73,0.73-1.6,1.35-2.55,1.8c-1.2,0.58-2.54,0.89-3.96,0.89
		c-1.47,0-2.85-0.35-4.08-0.94c-3.03-1.51-5.12-4.64-5.12-8.26c0-2.54,1.03-4.85,2.7-6.52c1.66-1.67,3.96-2.7,6.51-2.7
		c2.54,0,4.84,1.03,6.51,2.7C85.91,20.17,86.94,22.48,86.94,25.02z"/>
	<path class="st4" d="M65.18,31.83c0,3.16-1.62,5.99-4.11,7.65c-1.24,0.84-2.7,1.37-4.29,1.51c-1.55,0.14-3.05-0.13-4.41-0.7
		c-3.02-1.29-5.26-4.17-5.56-7.67c-0.02-0.27-0.03-0.55-0.03-0.81c0-4.72,3.61-8.74,8.41-9.16c0.27-0.02,0.55-0.03,0.81-0.03
		c4.72,0,8.74,3.61,9.16,8.41C65.16,31.29,65.18,31.56,65.18,31.83z"/>
	<path class="st4" d="M41.01,39.49c0,2.56-1.07,5-2.92,6.72c-0.98,0.93-2.16,1.65-3.53,2.08c-1.94,0.61-3.94,0.55-5.72-0.06
		c-2.68-0.91-4.91-3.04-5.82-5.95c-0.29-0.92-0.43-1.86-0.43-2.78c0-3.9,2.51-7.53,6.43-8.76c0.92-0.29,1.86-0.43,2.78-0.43
		c3.9,0,7.53,2.51,8.77,6.43C40.86,37.65,41.01,38.57,41.01,39.49z"/>
</g>
</svg>
